<svg width="512" height="512" viewBox="0 0 512 512" fill="none" xmlns="http://www.w3.org/2000/svg">
<g clip-path="url(#clip0_1:455)">
<path d="M387.588 334.78C353.377 342.452 310.8 352 254.909 352C217.927 352 185.515 342.989 158.46 325.211C177.202 332.207 197.027 335.859 217.032 336C260.032 336 307.005 323.455 348.443 312.386C394.755 300.016 438.496 288.333 453.151 301.875C454.709 303.315 456.775 304.077 458.896 303.994C461.016 303.91 463.016 302.988 464.456 301.43C465.896 299.872 466.658 297.805 466.575 295.685C466.491 293.565 465.569 291.565 464.011 290.125C442.882 270.602 399.385 282.219 344.311 296.925C303.827 307.743 257.938 320 217.032 320C170.916 320 131.48 297.122 106.519 277.929C79.0619 256.818 62.5189 235.359 62.3609 235.149C61.7307 234.295 60.937 233.576 60.0261 233.032C59.1151 232.488 58.1051 232.131 57.0548 231.981C56.0045 231.831 54.9348 231.892 53.9082 232.159C52.8815 232.427 51.9183 232.896 51.0746 233.539C50.2309 234.182 49.5236 234.987 48.9939 235.906C48.4641 236.825 48.1225 237.841 47.9889 238.893C47.8553 239.946 47.9323 241.014 48.2156 242.037C48.4989 243.059 48.9827 244.015 49.6389 244.849C50.3499 245.781 67.3859 267.949 96.4029 290.332C100.663 293.618 104.958 296.73 109.287 299.667C109.375 299.838 109.462 300.008 109.563 300.175C109.601 300.236 109.718 300.425 109.906 300.715L103.883 299.33L103.917 299.19C103.85 299.44 102.178 305.356 94.8889 309.479C85.1519 314.988 69.6889 314.97 50.1889 309.428C48.154 308.867 45.9799 309.133 44.1403 310.168C42.3006 311.203 40.9446 312.923 40.3675 314.953C39.7905 316.983 40.0392 319.16 41.0596 321.007C42.0799 322.855 43.7891 324.225 45.8149 324.818C57.0729 328.018 67.2395 329.618 76.3149 329.618C86.9359 329.618 96.0069 327.418 103.441 323.018C108.962 319.826 113.536 315.225 116.696 309.686C117.847 311.052 119.141 312.528 120.586 314.095C120.204 315.04 120.007 316.05 120.007 317.069C120.007 317.202 119.707 330.421 109.628 338.184C100.586 345.146 85.4829 346.246 65.9469 341.361C63.8945 340.863 61.7287 341.198 59.9217 342.291C58.1148 343.384 56.8134 345.147 56.3012 347.196C55.7891 349.244 56.1078 351.413 57.1879 353.227C58.268 355.042 60.0218 356.356 62.0669 356.883C70.4554 359.092 79.0821 360.27 87.7559 360.391C100.671 360.391 111.331 357.154 119.605 350.691C127.013 344.755 132.25 336.536 134.499 327.313C137.319 329.675 140.385 332.08 143.724 334.485C143.847 334.574 143.978 334.665 144.103 334.754C143.98 335.539 143.975 336.338 144.087 337.125C144.111 337.295 146.199 354.372 135.243 365.676C126.235 374.976 110.643 378.461 88.8909 376.043C86.8005 375.844 84.7158 376.475 83.0864 377.799C81.4571 379.124 80.4138 381.036 80.1818 383.123C79.9497 385.21 80.5475 387.304 81.846 388.954C83.1446 390.604 85.0399 391.678 87.1229 391.943C91.8566 392.482 96.6165 392.76 101.381 392.774C121.223 392.774 136.442 387.427 146.733 376.809C156.767 366.457 159.533 353.597 160.123 344.856C162.781 346.328 165.581 347.778 168.523 349.205C168.056 350.444 167.906 351.78 168.084 353.093C168.111 353.288 170.584 372.756 158.825 386.2C150.817 395.36 137.757 400 120 400C117.878 400 115.843 400.843 114.343 402.343C112.843 403.843 112 405.878 112 408C112 410.122 112.843 412.156 114.343 413.657C115.843 415.157 117.878 416 120 416C122.753 416 125.424 415.902 128.011 415.707V415.817C128.011 415.958 128 416.099 128.005 416.239C128.005 416.325 128.018 416.409 128.023 416.495C128.034 416.671 128.044 416.847 128.066 417.021C128.074 417.075 128.086 417.129 128.094 417.183C128.125 417.383 128.157 417.583 128.202 417.783C128.213 417.831 128.23 417.878 128.241 417.926C128.291 418.126 128.341 418.326 128.408 418.519C128.432 418.592 128.464 418.663 128.491 418.736C128.551 418.901 128.61 419.066 128.681 419.227C128.732 419.343 128.793 419.454 128.85 419.568C128.907 419.682 128.958 419.796 129.019 419.906C129.098 420.048 129.189 420.184 129.276 420.321C129.326 420.398 129.371 420.479 129.423 420.554C129.518 420.692 129.623 420.823 129.728 420.954C129.783 421.024 129.834 421.098 129.892 421.167C129.992 421.279 130.092 421.385 130.192 421.493C130.27 421.575 130.344 421.661 130.425 421.74C130.506 421.819 130.601 421.897 130.689 421.975C130.799 422.075 130.907 422.175 131.023 422.265C131.093 422.32 131.168 422.37 131.24 422.423C131.384 422.529 131.527 422.636 131.678 422.732C131.743 422.774 131.812 422.81 131.878 422.85C132.042 422.95 132.206 423.045 132.378 423.132C132.393 423.14 132.406 423.149 132.421 423.156L164.421 439.156C164.562 439.227 164.704 439.294 164.848 439.356C171.431 442.284 178.445 444.127 185.617 444.813C186.361 445.803 187.325 446.606 188.432 447.159C189.54 447.712 190.762 448 192 448H208C212.192 448.006 216.38 447.739 220.538 447.2C221.617 447.724 222.8 447.998 224 448H248C250.1 448 252.147 447.92 254.153 447.777C254.758 447.923 255.378 447.998 256 448H280C282.1 448 284.147 447.92 286.153 447.777C286.758 447.923 287.378 447.998 288 448H304C316.991 448 327.926 445.071 337.038 439.988C349.557 439.86 360.149 436.94 369.018 431.935C382.015 429.69 394.285 424.363 404.8 416.4C420.125 404.906 438.245 382.759 439.869 341.969C451.105 341.634 459.926 343.736 466.569 349.875C467.34 350.588 468.245 351.142 469.23 351.506C470.216 351.869 471.264 352.035 472.314 351.994C473.363 351.952 474.395 351.705 475.349 351.265C476.303 350.825 477.161 350.201 477.874 349.43C478.587 348.658 479.141 347.754 479.505 346.768C479.868 345.783 480.034 344.735 479.993 343.685C479.951 342.635 479.704 341.604 479.264 340.65C478.824 339.696 478.2 338.838 477.429 338.125C456.97 319.219 427.866 325.747 387.588 334.78V334.78ZM150.388 410.88C158.32 407.874 165.394 402.966 170.988 396.589C183.319 382.371 184.531 364.509 184.288 355.913C189.188 357.724 194.388 359.4 199.888 360.897C199.834 361.261 199.806 361.629 199.804 361.997C199.804 375.253 195.116 394.268 181.904 404.234C173.792 410.362 163.217 412.573 150.392 410.884L150.388 410.88ZM205.633 424.222C196.795 430.05 186.29 430.514 173.591 425.631C180.088 423.977 186.19 421.045 191.542 417.007C208.603 404.138 215.186 381.927 215.76 364.507C220.791 365.434 226.024 366.207 231.478 366.782C229.958 384.11 222.889 412.85 205.637 424.226L205.633 424.222ZM254.07 409.772C247.17 421.093 236.847 428.002 222.746 430.694C239.914 413.294 245.964 384.626 247.421 367.862C249.882 367.942 252.368 367.996 254.905 367.996C257.915 367.996 260.877 367.963 263.811 367.912V367.996C263.811 379.771 262.121 396.575 254.074 409.776L254.07 409.772ZM256.591 431.472C271.679 417.9 279.811 396.321 279.811 368C279.811 367.792 279.795 367.587 279.779 367.383C285.308 367.109 290.698 366.755 295.951 366.321C295.444 396.77 290.434 427.173 256.6 431.476L256.591 431.472ZM293.055 430.727C297.867 425.56 301.702 419.563 304.373 413.027C311.173 396.815 311.906 378.382 311.985 364.733C317.472 364.105 322.806 363.411 327.985 362.652C327.808 392.9 324.141 424.135 293.059 430.731L293.055 430.727ZM329.028 426.001C331.997 421.994 334.464 417.638 336.373 413.03C343.984 394.9 344 373.976 344 360.092C349.428 359.144 354.685 358.158 359.772 357.135C359.373 373.956 355.4 411.406 329.032 426.005L329.028 426.001ZM359.159 418.95C370.922 401.024 375.807 377.109 375.807 353.996C375.807 353.923 375.798 353.852 375.796 353.779C381.069 352.633 386.165 351.491 391.085 350.388L391.858 350.215C391.041 369.084 385.881 405.605 359.163 418.954L359.159 418.95ZM395.2 403.677C403.807 387.071 407.663 366.677 407.977 346.677C413.592 345.491 418.852 344.464 423.777 343.67C421.916 375.636 408.524 393.629 395.2 403.677Z" fill="#4A6A37"/>
<path d="M492.319 117.16L193.01 64.1201C192.316 64.0053 191.611 63.9751 190.91 64.03L151.439 67.5001C150.392 67.592 149.374 67.8892 148.442 68.3747C147.511 68.8602 146.684 69.5244 146.009 70.3295C145.334 71.1346 144.824 72.0648 144.508 73.0669C144.193 74.069 144.078 75.1235 144.17 76.17C144.338 78.1712 145.26 80.0338 146.75 81.38C147.567 82.1259 148.531 82.6941 149.579 83.0487C150.627 83.4033 151.738 83.5366 152.84 83.4401L191.26 80.06L489.53 132.91C491.382 133.23 493.061 134.195 494.27 135.633C495.48 137.071 496.142 138.891 496.14 140.77C496.135 141.246 496.091 141.721 496.01 142.19V142.2C494.84 147.848 491.574 152.843 486.87 156.18C481.946 159.863 475.979 161.887 469.83 161.96H469.76C468.336 161.958 466.914 161.837 465.51 161.6L193.06 104.17C192.518 104.053 191.965 103.996 191.41 104H44.5C36.229 104 29.33 102.57 25.069 99.9801C23.0784 98.8497 21.404 97.2369 20.2 95.2901C20.16 95.2301 20.13 95.17 20.09 95.1L89.08 89.0401C90.1266 88.9481 91.1449 88.651 92.0767 88.1655C93.0085 87.68 93.8355 87.0158 94.5106 86.2107C95.1857 85.4056 95.6956 84.4755 96.0112 83.4733C96.3268 82.4712 96.4419 81.4167 96.35 80.3701C96.2581 79.3234 95.9609 78.3051 95.4754 77.3733C94.99 76.4416 94.3257 75.6145 93.5207 74.9394C92.7156 74.2644 91.7854 73.7545 90.7833 73.4389C89.7811 73.1233 88.7266 73.0081 87.68 73.1L9.26998 79.99C7.27578 80.162 5.41885 81.0765 4.06691 82.5525C2.71497 84.0286 1.96659 85.9585 1.96998 87.96L1.97898 88.52C2.25363 93.8409 3.81531 99.0156 6.52998 103.6C11.069 111.12 18.17 114.9 23.319 116.75C29.359 118.92 36.38 119.99 44.8 120H190.569L462.35 177.28L462.59 177.33C464.957 177.747 467.356 177.958 469.76 177.96C479.385 177.891 488.737 174.748 496.45 168.99C504.416 163.238 509.89 154.666 511.76 145.02V144.99C512.311 141.886 512.246 138.704 511.567 135.625C510.889 132.547 509.61 129.632 507.805 127.048C506 124.463 503.703 122.26 501.046 120.563C498.388 118.867 495.423 117.71 492.319 117.16V117.16Z" fill="#4A6A37"/>
<path d="M114.87 84.18C116.339 85.5247 118.258 86.2704 120.25 86.2699C120.479 86.2699 120.72 86.26 120.96 86.24C122.791 86.0802 124.511 85.2952 125.832 84.017C127.152 82.7387 127.993 81.0449 128.212 79.2201C128.431 77.3953 128.016 75.5507 127.036 73.996C126.055 72.4413 124.57 71.2712 122.829 70.6823C121.088 70.0934 119.197 70.1215 117.475 70.7619C115.752 71.4024 114.302 72.6161 113.369 74.1992C112.435 75.7824 112.075 77.6386 112.348 79.456C112.621 81.2735 113.512 82.9415 114.87 84.18V84.18Z" fill="#4A6A37"/>
</g>
<defs>
<clipPath id="clip0_1:455">
<rect width="512" height="512" fill="white"/>
</clipPath>
</defs>
</svg>
