<svg width="512" height="512" viewBox="0 0 512 512" fill="none" xmlns="http://www.w3.org/2000/svg">
<g clip-path="url(#clip0_1:613)">
<path d="M232 176C229.878 176 227.843 176.843 226.343 178.343C224.843 179.843 224 181.878 224 184V504C224 506.122 224.843 508.157 226.343 509.657C227.843 511.157 229.878 512 232 512C234.122 512 236.157 511.157 237.657 509.657C239.157 508.157 240 506.122 240 504V184C240 181.878 239.157 179.843 237.657 178.343C236.157 176.843 234.122 176 232 176Z" fill="#4A6A37"/>
<path d="M504 168H416V88H504C506.122 88 508.157 87.1571 509.657 85.6569C511.157 84.1566 512 82.1217 512 80C512 77.8783 511.157 75.8434 509.657 74.3431C508.157 72.8429 506.122 72 504 72H408C405.878 72 403.843 72.8429 402.343 74.3431C400.843 75.8434 400 77.8783 400 80V104H281.122L190.593 78.135C187.021 77.1145 183.261 76.9371 179.609 77.6167C175.957 78.2964 172.513 79.8144 169.547 82.0515C166.581 84.2885 164.176 87.1835 162.519 90.5083C160.862 93.8332 160 97.4973 160 101.212V154.788C160.005 161.142 162.525 167.235 167.01 171.736C171.495 176.237 177.58 178.778 183.934 178.805C186.187 178.803 188.428 178.487 190.593 177.865L281.122 152H400V176C400 178.122 400.843 180.157 402.343 181.657C403.843 183.157 405.878 184 408 184H504C506.122 184 508.157 183.157 509.657 181.657C511.157 180.157 512 178.122 512 176C512 173.878 511.157 171.843 509.657 170.343C508.157 168.843 506.122 168 504 168ZM260.08 141.371L186.2 162.48C185.009 162.821 183.756 162.88 182.538 162.654C181.32 162.427 180.172 161.921 179.183 161.176C178.194 160.43 177.392 159.465 176.84 158.357C176.287 157.248 176 156.026 176 154.788V101.212C176 99.9735 176.287 98.7519 176.84 97.6435C177.392 96.535 178.194 95.5699 179.183 94.8242C180.172 94.0785 181.32 93.5726 182.538 93.3463C183.756 93.1199 185.009 93.1794 186.2 93.52L260.082 114.629C257.423 118.581 256.002 123.236 256.002 128C256.002 132.764 257.423 137.419 260.082 141.371H260.08ZM400 136H280C277.878 136 275.843 135.157 274.343 133.657C272.843 132.157 272 130.122 272 128C272 125.878 272.843 123.843 274.343 122.343C275.843 120.843 277.878 120 280 120H400V136Z" fill="#4A6A37"/>
<path d="M136 112C140.418 112 144 108.418 144 104C144 99.5817 140.418 96 136 96C131.582 96 128 99.5817 128 104C128 108.418 131.582 112 136 112Z" fill="#4A6A37"/>
<path d="M9 512C13.4183 512 17 508.418 17 504C17 499.582 13.4183 496 9 496C4.58172 496 1 499.582 1 504C1 508.418 4.58172 512 9 512Z" fill="#4A6A37"/>
<path d="M72 112H104C106.122 112 108.157 111.157 109.657 109.657C111.157 108.157 112 106.122 112 104C112 101.878 111.157 99.8434 109.657 98.3431C108.157 96.8429 106.122 96 104 96H72C69.8783 96 67.8434 96.8429 66.3431 98.3431C64.8429 99.8434 64 101.878 64 104C64 106.122 64.8429 108.157 66.3431 109.657C67.8434 111.157 69.8783 112 72 112V112Z" fill="#4A6A37"/>
<path d="M72 160H136C138.122 160 140.157 159.157 141.657 157.657C143.157 156.157 144 154.122 144 152C144 149.878 143.157 147.843 141.657 146.343C140.157 144.843 138.122 144 136 144H72C69.8783 144 67.8434 144.843 66.3431 146.343C64.8429 147.843 64 149.878 64 152C64 154.122 64.8429 156.157 66.3431 157.657C67.8434 159.157 69.8783 160 72 160V160Z" fill="#4A6A37"/>
<path d="M200 192C197.878 192 195.843 192.843 194.343 194.343C192.843 195.843 192 197.878 192 200C192.006 210.155 189.849 220.194 185.675 229.451C177.424 220.188 167.307 212.775 155.988 207.7C144.669 202.624 132.405 200 120 200C107.595 200 95.3308 202.624 84.012 207.7C72.6931 212.775 62.5761 220.188 54.3251 229.451C50.1507 220.194 47.9946 210.155 48.0001 200V40C48.0075 33.6371 50.5384 27.5369 55.0377 23.0376C59.537 18.5384 65.6371 16.0074 72.0001 16H168C174.363 16.0074 180.463 18.5384 184.962 23.0376C189.462 27.5369 191.993 33.6371 192 40V56C192 58.1217 192.843 60.1566 194.343 61.6569C195.843 63.1571 197.878 64 200 64C202.122 64 204.157 63.1571 205.657 61.6569C207.157 60.1566 208 58.1217 208 56V40C207.988 29.395 203.77 19.2278 196.271 11.7289C188.772 4.23001 178.605 0.0119105 168 0L72.0001 0C61.3951 0.0119105 51.2278 4.23001 43.7289 11.7289C36.2301 19.2278 32.012 29.395 32.0001 40V70.424C11.3704 92.5715 -0.068823 121.733 6.51981e-05 152V472C6.51981e-05 474.122 0.84292 476.157 2.34321 477.657C3.8435 479.157 5.87833 480 8.00006 480C10.1218 480 12.1566 479.157 13.6569 477.657C15.1572 476.157 16.0001 474.122 16.0001 472V152C15.9591 132.367 21.5088 113.129 32.0001 96.534V200C31.9809 217.014 36.9237 233.665 46.2231 247.913C46.4041 248.234 46.6072 248.543 46.8311 248.836C54.8605 260.883 65.7404 270.761 78.5046 277.593C91.2688 284.425 105.522 288 120 288C134.478 288 148.731 284.425 161.496 277.593C174.26 270.761 185.14 260.883 193.169 248.836C193.393 248.543 193.596 248.234 193.777 247.913C203.076 233.665 208.019 217.014 208 200C208 197.878 207.157 195.843 205.657 194.343C204.157 192.843 202.122 192 200 192ZM120 272C108.996 271.998 98.1389 269.471 88.2653 264.612C78.3918 259.754 69.7652 252.694 63.0501 243.976C69.7729 235.27 78.4023 228.221 88.2749 223.372C98.1475 218.522 109.001 216 120 216C131 216 141.853 218.522 151.725 223.372C161.598 228.221 170.227 235.27 176.95 243.976C170.235 252.694 161.608 259.754 151.735 264.612C141.861 269.471 131.004 271.998 120 272V272Z" fill="#4A6A37"/>
<path d="M152 336C154.122 336 156.157 335.157 157.657 333.657C159.157 332.157 160 330.122 160 328C160 325.878 159.157 323.843 157.657 322.343C156.157 320.843 154.122 320 152 320H88C85.8783 320 83.8434 320.843 82.3431 322.343C80.8429 323.843 80 325.878 80 328C80 330.122 80.8429 332.157 82.3431 333.657C83.8434 335.157 85.8783 336 88 336H152Z" fill="#4A6A37"/>
<path d="M168 352H72C69.8783 352 67.8434 352.843 66.3431 354.343C64.8429 355.843 64 357.878 64 360C64 362.122 64.8429 364.157 66.3431 365.657C67.8434 367.157 69.8783 368 72 368H168C170.122 368 172.157 367.157 173.657 365.657C175.157 364.157 176 362.122 176 360C176 357.878 175.157 355.843 173.657 354.343C172.157 352.843 170.122 352 168 352Z" fill="#4A6A37"/>
<path d="M152 384H88C85.8783 384 83.8434 384.843 82.3431 386.343C80.8429 387.843 80 389.878 80 392C80 394.122 80.8429 396.157 82.3431 397.657C83.8434 399.157 85.8783 400 88 400H152C154.122 400 156.157 399.157 157.657 397.657C159.157 396.157 160 394.122 160 392C160 389.878 159.157 387.843 157.657 386.343C156.157 384.843 154.122 384 152 384Z" fill="#4A6A37"/>
</g>
<defs>
<clipPath id="clip0_1:613">
<rect width="512" height="512" fill="white"/>
</clipPath>
</defs>
</svg>
