<svg width="512" height="512" viewBox="0 0 512 512" fill="none" xmlns="http://www.w3.org/2000/svg">
<g clip-path="url(#clip0_1:660)">
<path d="M256 400H200C197.878 400 195.843 400.843 194.343 402.343C192.843 403.843 192 405.878 192 408C192 410.122 192.843 412.157 194.343 413.657C195.843 415.157 197.878 416 200 416H256C258.122 416 260.157 415.157 261.657 413.657C263.157 412.157 264 410.122 264 408C264 405.878 263.157 403.843 261.657 402.343C260.157 400.843 258.122 400 256 400Z" fill="#4A6A37"/>
<path d="M123.017 231.851C128.833 226.785 136.287 223.996 144 224H256C263.092 224.009 269.981 226.37 275.589 230.713C281.196 235.056 285.204 241.135 286.987 248H192C189.878 248 187.843 248.843 186.343 250.343C184.843 251.843 184 253.878 184 256C184 258.122 184.843 260.157 186.343 261.657C187.843 263.157 189.878 264 192 264H286.992C285.211 270.867 281.202 276.948 275.594 281.292C269.985 285.635 263.094 287.994 256 288H232C229.878 288 227.843 288.843 226.343 290.343C224.843 291.843 224 293.878 224 296C224 298.122 224.843 300.157 226.343 301.657C227.843 303.157 229.878 304 232 304H272C283.53 304.04 294.663 308.212 303.38 315.759C312.096 323.306 317.819 333.727 319.51 345.132C319.659 346.172 320.011 347.173 320.546 348.077C321.081 348.981 321.79 349.77 322.63 350.401C323.471 351.031 324.427 351.49 325.445 351.75C326.463 352.011 327.522 352.069 328.562 351.92C329.602 351.771 330.603 351.419 331.507 350.884C332.411 350.349 333.2 349.64 333.831 348.8C334.461 347.959 334.92 347.003 335.18 345.985C335.441 344.967 335.499 343.908 335.35 342.868C333.541 330.638 328.245 319.189 320.096 309.891C311.948 300.593 301.293 293.841 289.406 290.442C289.582 290.272 289.764 290.11 289.938 289.942C295.783 284.097 300.02 276.841 302.238 268.878C304.456 260.914 304.579 252.513 302.596 244.488C300.614 236.463 296.592 229.086 290.921 223.071C285.25 217.057 278.122 212.609 270.227 210.158C274.643 205.067 277.7 198.943 279.112 192.353C280.525 185.764 280.248 178.924 278.307 172.471C276.366 166.017 272.825 160.16 268.011 155.443C263.198 150.726 257.27 147.303 250.779 145.493C253.299 141.644 254.958 137.297 255.644 132.747C256.329 128.198 256.024 123.555 254.749 119.134C253.475 114.714 251.261 110.621 248.259 107.135C245.257 103.649 241.537 100.852 237.355 98.936C239.233 95.2785 240.139 91.1997 239.986 87.0912C239.834 82.9826 238.627 78.9823 236.483 75.4744C234.339 71.9664 231.329 69.0686 227.742 67.0593C224.155 65.0499 220.111 63.9964 216 64H184C179.889 63.9969 175.847 65.0504 172.261 67.0595C168.674 69.0686 165.665 71.9658 163.52 75.4731C161.376 78.9803 160.17 82.9798 160.016 87.0876C159.863 91.1954 160.768 95.2737 162.645 98.931C158.463 100.847 154.743 103.644 151.741 107.13C148.739 110.616 146.525 114.709 145.251 119.129C143.976 123.55 143.671 128.193 144.356 132.742C145.042 137.292 146.701 141.639 149.221 145.488C142.729 147.299 136.8 150.722 131.986 155.44C127.173 160.158 123.631 166.017 121.691 172.472C119.751 178.927 119.476 185.768 120.89 192.358C122.305 198.948 125.364 205.073 129.782 210.163C123.414 212.134 117.528 215.413 112.5 219.79C110.901 221.184 109.921 223.157 109.776 225.274C109.704 226.322 109.839 227.374 110.174 228.37C110.509 229.365 111.036 230.286 111.727 231.078C112.417 231.869 113.256 232.518 114.197 232.985C115.138 233.453 116.162 233.73 117.21 233.802C119.327 233.947 121.415 233.245 123.014 231.851H123.017ZM184 80H216C218.122 80 220.157 80.8429 221.657 82.3432C223.157 83.8434 224 85.8783 224 88C224 90.1217 223.157 92.1566 221.657 93.6569C220.157 95.1572 218.122 96 216 96H184C181.878 96 179.843 95.1572 178.343 93.6569C176.843 92.1566 176 90.1217 176 88C176 85.8783 176.843 83.8434 178.343 82.3432C179.843 80.8429 181.878 80 184 80ZM176 112H224C228.243 112 232.313 113.686 235.314 116.686C238.314 119.687 240 123.757 240 128C240 132.243 238.314 136.313 235.314 139.314C232.313 142.314 228.243 144 224 144H176C171.757 144 167.687 142.314 164.686 139.314C161.686 136.313 160 132.243 160 128C160 123.757 161.686 119.687 164.686 116.686C167.687 113.686 171.757 112 176 112V112ZM160 160H240C244.961 160.006 249.799 161.548 253.849 164.412C257.9 167.277 260.965 171.324 262.624 176H184C181.878 176 179.843 176.843 178.343 178.343C176.843 179.843 176 181.878 176 184C176 186.122 176.843 188.157 178.343 189.657C179.843 191.157 181.878 192 184 192H262.624C260.965 196.676 257.9 200.723 253.849 203.588C249.799 206.452 244.961 207.994 240 208H160C153.635 208 147.53 205.471 143.029 200.971C138.529 196.47 136 190.365 136 184C136 177.635 138.529 171.53 143.029 167.029C147.53 162.529 153.635 160 160 160Z" fill="#4A6A37"/>
<path d="M207.791 311.947C208.246 309.996 207.953 307.946 206.969 306.202C205.986 304.457 204.384 303.145 202.48 302.524C201.129 302.083 171.68 292.657 144.951 297.292C135.059 271.732 110.421 250.937 109.121 249.854C107.683 248.656 105.871 248 104 248C102.129 248 100.317 248.656 98.8789 249.854C97.6979 250.837 72.2409 272.287 62.6369 298.297C36.0229 293.833 7.04294 303.097 5.51894 303.597C3.61506 304.218 2.01333 305.53 1.03019 307.275C0.047052 309.02 -0.245998 311.07 0.208937 313.02C0.644937 314.89 10.7639 357.102 37.3359 375.265C23.5839 401.976 29.2069 439.465 29.4829 441.236C29.7771 443.12 30.7348 444.837 32.1833 446.078C33.6318 447.319 35.4758 448.001 37.3829 448.002C37.5549 448.002 37.7289 448.002 37.9019 447.985C39.7699 447.865 80.7019 444.985 103.563 423.771C126.421 444.982 167.355 447.865 169.223 447.985C169.397 447.997 169.57 448.002 169.742 448.002C171.649 448.001 173.493 447.318 174.942 446.078C176.39 444.837 177.348 443.119 177.642 441.235C177.912 439.498 183.592 401.635 169.598 374.907C196.966 357.16 207.349 313.843 207.791 311.947ZM44.4599 431.135C43.3699 416.167 44.1939 390.395 55.7519 376.074C64.3839 365.38 77.0309 355 91.0249 360.725C87.0774 365.978 84.6107 372.194 83.8819 378.725C82.7339 389.183 85.9329 400.144 93.3699 411.391C80.1369 424.376 56.5449 429.368 44.4599 431.135ZM76.6309 343.687C66.0699 345.51 55.9789 351.738 46.5759 362.193C30.8759 351.685 21.7449 328.618 17.9219 316.749C32.6219 313.249 58.3879 309.856 74.5149 318.883C84.7489 324.612 95.6489 333.512 95.9819 345.511C89.8108 343.183 83.1283 342.554 76.6309 343.687V343.687ZM82.3309 304.922C80.9309 304.138 79.4976 303.424 78.0309 302.779C83.9249 287.66 96.8439 273.761 104.031 266.808C115.206 277.577 133.02 298.686 133.02 317.333C133.02 336.833 125.708 348.482 111.768 351.483C111.708 351.423 111.651 351.36 111.589 351.303C113.347 338.972 110.018 320.421 82.3289 304.922H82.3309ZM162.614 431.175C147.665 428.988 122.46 422.593 110.877 408.241C102.735 398.154 98.9009 388.551 99.7879 380.469C100.245 376.462 101.848 372.672 104.405 369.553C109.863 377.449 118.127 382.966 127.513 384.979C130.298 385.564 133.136 385.856 135.982 385.85C142.592 385.748 149.129 384.449 155.275 382.015C163.668 397.609 163.445 419.694 162.612 431.175H162.614ZM158.981 362.638C147.468 369.083 132.646 373.897 121.891 365.085C127.187 363.039 131.977 359.87 135.931 355.796C144.62 346.817 149.031 333.877 149.031 317.333C149.031 315.833 148.931 314.348 148.789 312.862C163.922 310.495 180.673 313.492 190.07 315.726C186.034 328.218 176.166 353.018 158.979 362.638H158.981Z" fill="#4A6A37"/>
<path d="M392 192C394.122 192 396.157 191.157 397.657 189.657C399.157 188.157 400 186.122 400 184V128C400 125.878 399.157 123.843 397.657 122.343C396.157 120.843 394.122 120 392 120C389.878 120 387.843 120.843 386.343 122.343C384.843 123.843 384 125.878 384 128V184C384 186.122 384.843 188.157 386.343 189.657C387.843 191.157 389.878 192 392 192Z" fill="#4A6A37"/>
<path d="M392 248C394.122 248 396.157 247.157 397.657 245.657C399.157 244.157 400 242.122 400 240V216C400 213.878 399.157 211.843 397.657 210.343C396.157 208.843 394.122 208 392 208C389.878 208 387.843 208.843 386.343 210.343C384.843 211.843 384 213.878 384 216V240C384 242.122 384.843 244.157 386.343 245.657C387.843 247.157 389.878 248 392 248Z" fill="#4A6A37"/>
<path d="M360 264C362.122 264 364.157 263.157 365.657 261.657C367.157 260.157 368 258.122 368 256V192C368 189.878 367.157 187.843 365.657 186.343C364.157 184.843 362.122 184 360 184C357.878 184 355.843 184.843 354.343 186.343C352.843 187.843 352 189.878 352 192V256C352 258.122 352.843 260.157 354.343 261.657C355.843 263.157 357.878 264 360 264Z" fill="#4A6A37"/>
<path d="M424 264C426.122 264 428.157 263.157 429.657 261.657C431.157 260.157 432 258.122 432 256V192C432 189.878 431.157 187.843 429.657 186.343C428.157 184.843 426.122 184 424 184C421.878 184 419.843 184.843 418.343 186.343C416.843 187.843 416 189.878 416 192V256C416 258.122 416.843 260.157 418.343 261.657C419.843 263.157 421.878 264 424 264Z" fill="#4A6A37"/>
<path d="M360 168C364.418 168 368 164.418 368 160C368 155.582 364.418 152 360 152C355.582 152 352 155.582 352 160C352 164.418 355.582 168 360 168Z" fill="#4A6A37"/>
<path d="M160 264C164.418 264 168 260.418 168 256C168 251.582 164.418 248 160 248C155.582 248 152 251.582 152 256C152 260.418 155.582 264 160 264Z" fill="#4A6A37"/>
<path d="M424 168C428.418 168 432 164.418 432 160C432 155.582 428.418 152 424 152C419.582 152 416 155.582 416 160C416 164.418 419.582 168 424 168Z" fill="#4A6A37"/>
<path d="M424 136C428.418 136 432 132.418 432 128C432 123.582 428.418 120 424 120C419.582 120 416 123.582 416 128C416 132.418 419.582 136 424 136Z" fill="#4A6A37"/>
<path d="M360 136C364.418 136 368 132.418 368 128C368 123.582 364.418 120 360 120C355.582 120 352 123.582 352 128C352 132.418 355.582 136 360 136Z" fill="#4A6A37"/>
<path d="M392 104C396.418 104 400 100.418 400 96C400 91.5817 396.418 88 392 88C387.582 88 384 91.5817 384 96C384 100.418 387.582 104 392 104Z" fill="#4A6A37"/>
<path d="M504 368H400V351.023C413.786 347.589 424 335.494 424 321.143C424 307.209 404.624 276.643 398.686 267.606C397.958 266.498 396.965 265.588 395.798 264.958C394.631 264.329 393.326 263.999 392 263.999C390.674 263.999 389.368 264.329 388.201 264.958C387.034 265.588 386.042 266.498 385.314 267.606C379.376 276.643 360 307.206 360 321.143C360 335.494 370.214 347.589 384 351.023V368H280C277.878 368 275.843 368.843 274.343 370.343C272.843 371.844 272 373.878 272 376C271.992 387.517 274.764 398.865 280.081 409.08C280.361 411.141 281.434 413.011 283.071 414.293C289.548 424.606 298.534 433.107 309.19 439.002C319.845 444.897 331.822 447.993 344 448H440C452.178 447.993 464.154 444.897 474.81 439.002C485.466 433.107 494.452 424.606 500.929 414.293C502.566 413.011 503.639 411.141 503.919 409.08C509.236 398.865 512.008 387.517 512 376C512 373.878 511.157 371.844 509.657 370.343C508.156 368.843 506.122 368 504 368ZM376 321.143C376 316.121 383.457 301.271 392 287.043C400.543 301.264 408 316.113 408 321.143C408 329.335 400.822 336 392 336C383.178 336 376 329.335 376 321.143ZM490.579 400H360C357.878 400 355.843 400.843 354.343 402.343C352.843 403.844 352 405.878 352 408C352 410.122 352.843 412.157 354.343 413.657C355.843 415.157 357.878 416 360 416H479.138C468.696 426.261 454.64 432.007 440 432H344C329.36 432.007 315.304 426.261 304.862 416H328C330.122 416 332.156 415.157 333.657 413.657C335.157 412.157 336 410.122 336 408C336 405.878 335.157 403.844 333.657 402.343C332.156 400.843 330.122 400 328 400H293.421C291.006 394.942 289.37 389.548 288.569 384H495.431C494.63 389.548 492.994 394.942 490.579 400V400Z" fill="#4A6A37"/>
</g>
<defs>
<clipPath id="clip0_1:660">
<rect width="512" height="512" fill="white"/>
</clipPath>
</defs>
</svg>
