<svg width="512" height="512" viewBox="0 0 512 512" fill="none" xmlns="http://www.w3.org/2000/svg">
<g clip-path="url(#clip0_1:677)">
<path d="M320 191.729C320 193.851 320.843 195.886 322.343 197.386C323.843 198.886 325.878 199.729 328 199.729C330.122 199.729 332.157 198.886 333.657 197.386C335.157 195.886 336 193.851 336 191.729V175.729C336 146.121 355.473 127.729 386.82 127.729C394.107 127.728 401.295 129.425 407.813 132.685C414.33 135.945 419.999 140.678 424.37 146.509L497.6 244.148C498.873 245.845 500.768 246.968 502.869 247.268C504.969 247.568 507.103 247.021 508.8 245.748C510.497 244.475 511.62 242.58 511.92 240.479C512.22 238.379 511.673 236.245 510.4 234.548L437.17 136.908C431.309 129.089 423.708 122.743 414.968 118.372C406.229 114.002 396.591 111.727 386.82 111.728C346.853 111.728 320 137.447 320 175.728V191.729Z" fill="#4A6A37"/>
<path d="M392 327.729C392 325.607 391.157 323.572 389.657 322.072C388.157 320.572 386.122 319.729 384 319.729C381.878 319.729 379.843 320.572 378.343 322.072C376.843 323.572 376 325.607 376 327.729V367.729C376 369.85 376.843 371.885 378.343 373.385L379.502 374.535C396.209 391.07 404.692 403.763 404.714 412.259C404.755 413.341 404.564 414.418 404.155 415.421C403.746 416.423 403.129 417.326 402.343 418.071C398.253 422.109 393.695 425.643 388.766 428.6C382.871 432.171 377.417 436.425 372.518 441.273C366.424 447.366 361.043 455.508 355.348 464.126C349.948 472.288 344.375 480.726 338.577 486.526C326.296 498.808 311.593 496.936 301.666 493.381L317.657 477.39C318.468 476.578 319.096 475.601 319.497 474.526L343.497 410.126C343.829 409.232 343.998 408.286 343.997 407.332V383.732C343.997 381.61 343.154 379.575 341.654 378.075C340.154 376.575 338.119 375.732 335.997 375.732C333.875 375.732 331.84 376.575 330.34 378.075C328.84 379.575 327.997 381.61 327.997 383.732V405.888L305.112 467.3L282.343 490.068C281.483 490.928 280.831 491.972 280.435 493.122C280.04 494.271 279.911 495.496 280.06 496.702C280.208 497.909 280.63 499.066 281.293 500.085C281.955 501.105 282.841 501.96 283.884 502.585C293.114 508.124 304.467 512.04 316.069 512.039C322.374 512.081 328.622 510.843 334.435 508.402C340.248 505.96 345.506 502.365 349.89 497.834C356.833 490.892 362.863 481.766 368.696 472.94C373.934 465.015 378.881 457.529 383.831 452.579C387.921 448.543 392.48 445.011 397.409 442.057C403.304 438.485 408.757 434.231 413.657 429.383C415.928 427.143 417.724 424.468 418.936 421.518C420.149 418.568 420.754 415.403 420.714 412.214C420.67 395.335 404.669 377.076 392 364.4V327.729Z" fill="#4A6A37"/>
<path d="M152 224.43C156.418 224.43 160 220.848 160 216.43C160 212.012 156.418 208.43 152 208.43C147.582 208.43 144 212.012 144 216.43C144 220.848 147.582 224.43 152 224.43Z" fill="#4A6A37"/>
<path d="M8 96H96V280C96 288.487 99.3714 296.626 105.373 302.627C111.374 308.629 119.513 312 128 312C136.487 312 144.626 308.629 150.627 302.627C156.629 296.626 160 288.487 160 280V248.43C160 246.308 159.157 244.273 157.657 242.773C156.157 241.273 154.122 240.43 152 240.43C149.878 240.43 147.843 241.273 146.343 242.773C144.843 244.273 144 246.308 144 248.43V280C144 284.243 142.314 288.313 139.314 291.314C136.313 294.314 132.243 296 128 296C123.757 296 119.687 294.314 116.686 291.314C113.686 288.313 112 284.243 112 280V24C112.009 21.8812 112.855 19.8519 114.354 18.3536C115.852 16.8554 117.881 16.0095 120 16H208V72C208 74.1217 208.843 76.1566 210.343 77.6569C211.843 79.1571 213.878 80 216 80C218.122 80 220.157 79.1571 221.657 77.6569C223.157 76.1566 224 74.1217 224 72V16H232C234.119 16.0095 236.148 16.8554 237.646 18.3536C239.145 19.8519 239.991 21.8812 240 24V168C240 174.365 237.471 180.47 232.971 184.971C228.47 189.471 222.365 192 216 192C209.635 192 203.53 189.471 199.029 184.971C194.529 180.47 192 174.365 192 168V136C192 129.635 189.471 123.53 184.971 119.029C180.47 114.529 174.365 112 168 112C161.635 112 155.53 114.529 151.029 119.029C146.529 123.53 144 129.635 144 136V184.43C144 186.552 144.843 188.587 146.343 190.087C147.843 191.587 149.878 192.43 152 192.43C154.122 192.43 156.157 191.587 157.657 190.087C159.157 188.587 160 186.552 160 184.43V136C160 133.878 160.843 131.843 162.343 130.343C163.843 128.843 165.878 128 168 128C170.122 128 172.157 128.843 173.657 130.343C175.157 131.843 176 133.878 176 136V168C176 178.609 180.214 188.783 187.716 196.284C195.217 203.786 205.391 208 216 208C226.609 208 236.783 203.786 244.284 196.284C251.786 188.783 256 178.609 256 168V96H296C306.609 96 316.783 91.7857 324.284 84.2843C331.786 76.7828 336 66.6087 336 56C336 45.3913 331.786 35.2172 324.284 27.7157C316.783 20.2143 306.609 16 296 16H280C277.878 16 275.843 16.8429 274.343 18.3431C272.843 19.8434 272 21.8783 272 24C272 26.1217 272.843 28.1566 274.343 29.6569C275.843 31.1571 277.878 32 280 32H296C299.152 32 302.273 32.6208 305.184 33.8269C308.096 35.033 310.742 36.8008 312.971 39.0294C315.199 41.258 316.967 43.9038 318.173 46.8156C319.379 49.7274 320 52.8483 320 56C320 59.1517 319.379 62.2726 318.173 65.1844C316.967 68.0962 315.199 70.742 312.971 72.9706C310.742 75.1992 308.096 76.967 305.184 78.1731C302.273 79.3792 299.152 80 296 80H256V24C256 17.6348 253.471 11.5303 248.971 7.02944C244.47 2.52856 238.365 0 232 0L120 0C113.635 0 107.53 2.52856 103.029 7.02944C98.5286 11.5303 96 17.6348 96 24V80H8C5.87827 80 3.84344 80.8429 2.34315 82.3431C0.842855 83.8434 0 85.8783 0 88C0 90.1217 0.842855 92.1566 2.34315 93.6569C3.84344 95.1571 5.87827 96 8 96V96Z" fill="#4A6A37"/>
<path d="M8 32H72C74.1217 32 76.1566 31.1571 77.6569 29.6569C79.1571 28.1566 80 26.1217 80 24C80 21.8783 79.1571 19.8434 77.6569 18.3431C76.1566 16.8429 74.1217 16 72 16H8C5.87827 16 3.84344 16.8429 2.34315 18.3431C0.842855 19.8434 0 21.8783 0 24C0 26.1217 0.842855 28.1566 2.34315 29.6569C3.84344 31.1571 5.87827 32 8 32V32Z" fill="#4A6A37"/>
<path d="M374.864 215.73C379.095 215.789 398.103 221.666 401.62 224.001C401.693 224.051 401.768 224.101 401.842 224.147L411.226 230.124C411.54 230.358 411.871 230.569 412.216 230.755L499.7 286.478C500.586 287.042 501.575 287.427 502.61 287.61C503.645 287.792 504.706 287.769 505.732 287.541C506.758 287.314 507.73 286.886 508.591 286.284C509.451 285.681 510.185 284.914 510.75 284.028C511.315 283.141 511.699 282.152 511.882 281.117C512.064 280.082 512.041 279.021 511.813 277.995C511.586 276.969 511.159 275.998 510.556 275.137C509.953 274.276 509.186 273.542 508.3 272.978L422.445 218.3L407.428 180.757C406.635 178.795 405.096 177.227 403.149 176.397C401.202 175.567 399.006 175.542 397.041 176.328C395.076 177.114 393.502 178.646 392.664 180.59C391.827 182.533 391.794 184.73 392.572 186.698L400.347 206.136C391.333 202.856 379.639 199.729 374.87 199.729C366.58 199.706 358.367 201.321 350.703 204.482C343.039 207.642 336.075 212.285 330.211 218.145C321.676 226.626 309.081 239.115 294.217 253.765C294.197 253.785 294.175 253.801 294.155 253.821C294.135 253.841 294.128 253.852 294.114 253.867C290.873 257.061 287.532 260.351 284.091 263.735C282.578 265.223 281.718 267.25 281.7 269.372C281.682 271.494 282.508 273.536 283.996 275.049C285.484 276.562 287.511 277.422 289.633 277.439C291.755 277.457 293.797 276.632 295.31 275.144C296.817 273.66 298.305 272.196 299.772 270.752L315.48 286.46L278.607 323.334C280.026 308.002 276.229 292.64 267.832 279.734L254.7 259.626C253.973 258.512 252.979 257.597 251.809 256.964C250.639 256.331 249.33 256 248 256H208C206.588 256 205.201 256.374 203.981 257.083C202.76 257.793 201.749 258.813 201.05 260.039C200.351 261.266 199.989 262.656 200.001 264.068C200.013 265.48 200.398 266.863 201.118 268.078L222.753 304.588C224.796 308.012 225.617 312.027 225.082 315.978C224.546 319.929 222.686 323.581 219.806 326.338C219.789 326.355 219.774 326.374 219.756 326.391C219.738 326.408 219.717 326.425 219.698 326.443C219.62 326.522 219.553 326.606 219.479 326.687C219.388 326.787 219.295 326.882 219.21 326.987C219.125 327.092 219.028 327.22 218.94 327.338C218.871 327.431 218.8 327.522 218.74 327.617C218.648 327.753 218.565 327.893 218.482 328.033C218.432 328.117 218.382 328.2 218.333 328.286C218.25 328.438 218.177 328.594 218.105 328.75C218.068 328.831 218.027 328.91 217.992 328.993C217.925 329.153 217.868 329.315 217.811 329.478C217.781 329.563 217.749 329.647 217.722 329.733C217.672 329.893 217.633 330.055 217.594 330.217C217.571 330.311 217.545 330.403 217.525 330.498C217.493 330.656 217.471 330.816 217.449 330.976C217.434 331.076 217.416 331.176 217.405 331.276C217.388 331.441 217.382 331.606 217.376 331.776C217.376 331.861 217.361 331.946 217.36 332.031C217.36 332.043 217.36 332.054 217.36 332.065C217.36 332.25 217.371 332.434 217.382 332.618C217.382 332.695 217.382 332.772 217.393 332.848C217.538 334.432 218.155 335.937 219.163 337.168C219.332 337.377 219.511 337.577 219.701 337.768L247.601 365.668C248.344 366.411 249.226 367 250.196 367.402C251.167 367.804 252.207 368.011 253.258 368.011C254.309 368.011 255.349 367.804 256.319 367.402C257.29 367 258.172 366.411 258.915 365.668L332.454 292.129C333.197 291.386 333.786 290.504 334.188 289.533C334.59 288.563 334.797 287.522 334.797 286.472C334.797 285.421 334.59 284.381 334.188 283.41C333.786 282.44 333.197 281.558 332.454 280.815L311.171 259.532C323.56 247.304 334.066 236.886 341.494 229.504C345.875 225.123 351.078 221.652 356.805 219.288C362.531 216.924 368.669 215.715 374.864 215.73V215.73ZM252.817 348.249L236.083 331.514C239.387 326.276 241.177 320.226 241.254 314.034C241.331 307.842 239.692 301.749 236.518 296.432L222.04 272H243.669L254.436 288.487C260.236 297.445 263.186 307.951 262.897 318.619C262.608 329.287 259.094 339.618 252.817 348.249V348.249Z" fill="#4A6A37"/>
<path d="M394.668 282.455C392.738 279.226 390.013 276.544 386.754 274.666C383.495 272.787 379.809 271.774 376.047 271.723C372.285 271.672 368.573 272.585 365.264 274.374C361.955 276.163 359.158 278.769 357.141 281.945C333.77 318.673 314.78 345.637 306.341 354.073C292.076 368.339 264.12 381.773 239.455 393.634C207.172 409.151 181.672 421.409 176.409 437.2C174.409 443.2 172.888 448.732 171.547 453.609C167.259 469.209 165.001 476.284 156.421 480.575C151.149 483.208 140.641 482.105 127.601 477.542C116.799 473.757 105.217 472.754 93.925 474.628C93.3045 474.731 92.6983 474.907 92.119 475.152C83.233 478.908 73.6803 480.832 64.033 480.809C54.3857 480.787 44.8422 478.817 35.974 475.019L25.854 470.675C22.1264 469.082 19.1299 466.152 17.454 462.461L65.131 455.65C65.7475 455.562 66.3516 455.403 66.931 455.175C69.499 454.163 130.054 430.222 149.207 413.804C162.43 402.467 182.124 384.374 207.741 360.029C208.503 359.305 209.114 358.438 209.541 357.478C209.968 356.518 210.201 355.483 210.228 354.433C210.255 353.383 210.075 352.338 209.697 351.357C209.32 350.376 208.754 349.479 208.03 348.718C207.306 347.956 206.44 347.344 205.48 346.918C204.519 346.491 203.485 346.258 202.434 346.231C201.384 346.204 200.339 346.384 199.358 346.761C198.377 347.138 197.481 347.705 196.719 348.429C171.299 372.586 151.81 390.493 138.793 401.653C124.825 413.627 79.423 433.007 61.936 439.941L6.86902 447.811C4.96268 448.083 3.21852 449.034 1.95672 450.488C0.694922 451.943 0.000172684 453.804 1.6482e-05 455.73C-0.00637076 462.045 1.84379 468.223 5.32043 473.495C8.79706 478.767 13.7468 482.9 19.554 485.382L29.665 489.722C40.3596 494.304 51.8591 496.713 63.4937 496.807C75.1284 496.902 86.6654 494.68 97.433 490.272C105.794 489.031 114.332 489.845 122.309 492.642C132.458 496.191 141.321 497.969 148.831 497.969C153.92 498.103 158.969 497.047 163.578 494.886C178.901 487.225 182.643 473.612 186.978 457.852C188.329 452.938 189.726 447.858 191.591 442.261C194.713 432.895 223.367 419.121 246.391 408.054C273.468 395.038 301.467 381.579 317.659 365.388C330.459 352.588 356.35 312.994 370.644 290.53C371.202 289.656 371.975 288.939 372.889 288.45C373.803 287.96 374.828 287.714 375.865 287.734C376.901 287.754 377.916 288.04 378.81 288.564C379.705 289.089 380.449 289.835 380.973 290.73C401.033 323.953 455.804 383.83 498.218 428.212C499.684 429.746 501.699 430.635 503.821 430.683C505.942 430.731 507.996 429.934 509.53 428.468C511.064 427.002 511.952 424.987 512 422.866C512.049 420.744 511.252 418.691 509.786 417.157C450.614 355.239 409.731 307.4 394.668 282.455Z" fill="#4A6A37"/>
<path d="M216 176C220.418 176 224 172.418 224 168C224 163.582 220.418 160 216 160C211.582 160 208 163.582 208 168C208 172.418 211.582 176 216 176Z" fill="#4A6A37"/>
<path d="M224 136V104C224 101.878 223.157 99.8434 221.657 98.3431C220.157 96.8429 218.122 96 216 96C213.878 96 211.843 96.8429 210.343 98.3431C208.843 99.8434 208 101.878 208 104V136C208 138.122 208.843 140.157 210.343 141.657C211.843 143.157 213.878 144 216 144C218.122 144 220.157 143.157 221.657 141.657C223.157 140.157 224 138.122 224 136Z" fill="#4A6A37"/>
<path d="M192 72V40C192 37.8783 191.157 35.8434 189.657 34.3431C188.157 32.8429 186.122 32 184 32C181.878 32 179.843 32.8429 178.343 34.3431C176.843 35.8434 176 37.8783 176 40V72C176 74.1217 176.843 76.1566 178.343 77.6569C179.843 79.1571 181.878 80 184 80C186.122 80 188.157 79.1571 189.657 77.6569C191.157 76.1566 192 74.1217 192 72Z" fill="#4A6A37"/>
<path d="M144 56C144 53.8783 143.157 51.8434 141.657 50.3431C140.157 48.8429 138.122 48 136 48C133.878 48 131.843 48.8429 130.343 50.3431C128.843 51.8434 128 53.8783 128 56V96C128 98.1217 128.843 100.157 130.343 101.657C131.843 103.157 133.878 104 136 104C138.122 104 140.157 103.157 141.657 101.657C143.157 100.157 144 98.1217 144 96V56Z" fill="#4A6A37"/>
</g>
<defs>
<clipPath id="clip0_1:677">
<rect width="512" height="512" fill="white"/>
</clipPath>
</defs>
</svg>
