<svg width="512" height="512" viewBox="0 0 512 512" fill="none" xmlns="http://www.w3.org/2000/svg">
<g clip-path="url(#clip0_1:758)">
<path d="M102.71 93.9701C103.811 94.2964 104.969 94.382 106.106 94.221C107.243 94.0599 108.332 93.656 109.299 93.0367C110.266 92.4174 111.088 91.5972 111.71 90.6318C112.331 89.6664 112.738 88.5785 112.902 87.442C113.066 86.3055 112.983 85.1471 112.66 84.0454C112.336 82.9436 111.779 81.9245 111.026 81.0572C110.274 80.1899 109.344 79.4948 108.298 79.019C107.253 78.5433 106.118 78.2981 104.97 78.3001C103.244 78.3082 101.566 78.8704 100.183 79.9037C98.8009 80.937 97.7866 82.387 97.2899 84.0401C96.6948 86.0756 96.9311 88.264 97.9472 90.1255C98.9632 91.987 100.676 93.3696 102.71 93.9701V93.9701Z" fill="#4A6A37"/>
<path d="M88.9 116.28V116.29C87.6136 127.361 88.9158 138.579 92.7041 149.06C96.4923 159.542 102.663 169 110.73 176.69L236.667 303.928L233.64 308.728C232.511 310.525 232.14 312.696 232.609 314.765C233.078 316.834 234.347 318.634 236.14 319.769C237.936 320.899 240.107 321.27 242.177 320.801C244.246 320.332 246.046 319.062 247.18 317.269L250.83 311.478C252.459 310.868 253.843 309.741 254.77 308.269C255.698 306.798 256.118 305.063 255.966 303.33L284.39 258.242C284.434 258.177 284.473 258.11 284.515 258.042L351.48 151.819C354.361 147.253 356.287 142.15 357.139 136.818C357.992 131.486 357.754 126.037 356.44 120.8L343.28 68.149C338.423 48.6766 327.185 31.3912 311.36 19.049C310.02 18.009 308.63 16.978 307.21 15.999H336.12C348.201 16.0477 359.947 19.9827 369.619 27.2221C379.291 34.4616 386.378 44.6212 389.83 56.199L407.88 117.579C410.194 125.435 410.755 133.703 409.525 141.799C408.295 149.896 405.303 157.624 400.76 164.438L365.06 218C364.445 218.873 364.012 219.86 363.785 220.904C363.558 221.947 363.542 223.025 363.738 224.075C363.934 225.125 364.338 226.124 364.927 227.015C365.516 227.906 366.277 228.67 367.165 229.262C368.054 229.854 369.052 230.263 370.101 230.463C371.149 230.663 372.228 230.652 373.272 230.429C374.316 230.206 375.305 229.776 376.181 229.165C377.056 228.554 377.801 227.773 378.37 226.87L414.08 173.319C419.915 164.553 423.758 154.616 425.341 144.205C426.923 133.795 426.206 123.164 423.24 113.06L405.19 51.68C400.801 36.7609 391.7 23.6637 379.247 14.348C366.795 5.03218 351.661 -0.00148302 336.11 3.27746e-07H175.89C160.339 -0.00148302 145.205 5.03218 132.753 14.348C120.3 23.6637 111.199 36.7609 106.81 51.68L106.33 53.34C105.98 54.5335 105.913 55.792 106.134 57.0158C106.356 58.2397 106.859 59.3952 107.604 60.3908C108.349 61.3864 109.316 62.1948 110.428 62.7518C111.54 63.3089 112.766 63.5992 114.01 63.6C115.735 63.5917 117.412 63.0292 118.793 61.9955C120.174 60.9618 121.186 59.5117 121.68 57.859L122.17 56.2C125.623 44.6208 132.711 34.4603 142.385 27.2208C152.06 19.9812 163.807 16.0471 175.89 16H204.79C186.834 28.4268 174.013 46.963 168.72 68.149L156.63 116.479C154.96 123.181 155.051 130.201 156.894 136.858C158.737 143.514 162.27 149.582 167.15 154.47L267.579 254.9L245.431 290.027L121.96 165.3L121.8 165.14C116.318 159.9 111.952 153.606 108.966 146.636C105.979 139.666 104.433 132.163 104.42 124.58C104.418 122.425 104.542 120.271 104.79 118.13C105.032 116.023 104.43 113.907 103.114 112.244C101.798 110.581 99.876 109.508 97.77 109.26C97.46 109.229 97.14 109.21 96.83 109.21C94.8714 109.212 92.9817 109.933 91.5197 111.236C90.0578 112.539 89.1255 114.334 88.9 116.28V116.28ZM178.47 143.149C176.235 140.926 174.462 138.281 173.256 135.369C172.049 132.456 171.432 129.333 171.44 126.18C171.439 124.218 171.678 122.263 172.15 120.359L184.24 72.03C188.242 56.0274 197.478 41.8217 210.48 31.6707C223.482 21.5198 239.505 16.0061 256 16.0061C272.495 16.0061 288.518 21.5198 301.52 31.6707C314.522 41.8217 323.758 56.0274 327.76 72.03L340.92 124.68C341.708 127.822 341.851 131.091 341.34 134.289C340.83 137.488 339.677 140.55 337.95 143.29L276.334 241.014L178.47 143.149Z" fill="#4A6A37"/>
<path d="M24 321C26.1217 321 28.1566 320.157 29.6569 318.657C31.1571 317.157 32 315.122 32 313V104C32.0167 89.153 37.922 74.9189 48.4204 64.4204C58.9189 53.922 73.153 48.0167 88 48C90.1217 48 92.1566 47.1571 93.6569 45.6569C95.1571 44.1566 96 42.1217 96 40C96 37.8783 95.1571 35.8434 93.6569 34.3431C92.1566 32.8429 90.1217 32 88 32C68.911 32.0214 50.61 39.614 37.112 53.112C23.614 66.61 16.0214 84.911 16 104V313C16 315.122 16.8429 317.157 18.3431 318.657C19.8434 320.157 21.8783 321 24 321Z" fill="#4A6A37"/>
<path d="M424 48C438.847 48.0167 453.081 53.922 463.58 64.4204C474.078 74.9189 479.983 89.153 480 104V368C480 370.122 480.843 372.157 482.343 373.657C483.843 375.157 485.878 376 488 376C490.122 376 492.157 375.157 493.657 373.657C495.157 372.157 496 370.122 496 368V104C495.979 84.911 488.386 66.61 474.888 53.112C461.39 39.614 443.089 32.0214 424 32C421.878 32 419.843 32.8429 418.343 34.3431C416.843 35.8434 416 37.8783 416 40C416 42.1217 416.843 44.1566 418.343 45.6569C419.843 47.1571 421.878 48 424 48Z" fill="#4A6A37"/>
<path d="M264 496H198.948L222.656 460.438C223.251 459.564 223.667 458.581 223.88 457.545C224.093 456.51 224.098 455.442 223.896 454.405C223.694 453.367 223.288 452.38 222.702 451.5C222.116 450.62 221.361 449.865 220.482 449.278C219.602 448.692 218.615 448.285 217.577 448.083C216.54 447.88 215.472 447.885 214.436 448.098C213.401 448.31 212.417 448.726 211.543 449.321C210.669 449.915 209.922 450.677 209.344 451.563L179.719 496H134.5L157.027 460.267C158.159 458.472 158.531 456.301 158.062 454.232C157.593 452.162 156.321 450.364 154.527 449.232C152.732 448.101 150.561 447.728 148.491 448.197C146.422 448.666 144.624 449.938 143.492 451.733L115.586 496H88C75.5806 496.008 63.5111 491.886 53.6913 484.282C43.8714 476.679 36.8587 466.026 33.757 454C33.4944 452.983 33.0339 452.027 32.402 451.187C31.77 450.348 30.9789 449.641 30.0738 449.108C29.1687 448.574 28.1673 448.224 27.1269 448.077C26.0865 447.931 25.0274 447.99 24.01 448.253C22.9927 448.516 22.037 448.976 21.1976 449.608C20.3582 450.24 19.6515 451.031 19.1179 451.936C18.5842 452.841 18.234 453.843 18.0874 454.883C17.9407 455.923 18.0004 456.983 18.263 458C22.2508 473.461 31.2665 487.157 43.8912 496.933C56.5159 506.709 72.0329 512.009 88 512H264C266.122 512 268.157 511.157 269.657 509.657C271.157 508.156 272 506.122 272 504C272 501.878 271.157 499.843 269.657 498.343C268.157 496.843 266.122 496 264 496Z" fill="#4A6A37"/>
<path d="M232 432C234.122 432 236.157 431.157 237.657 429.657C239.157 428.157 240 426.122 240 424C240 421.878 239.157 419.843 237.657 418.343C236.157 416.843 234.122 416 232 416H24C21.879 415.998 19.8456 415.154 18.3458 413.654C16.846 412.154 16.0024 410.121 16 408V392H136C138.122 392 140.157 391.157 141.657 389.657C143.157 388.157 144 386.122 144 384C144 381.878 143.157 379.843 141.657 378.343C140.157 376.843 138.122 376 136 376H16V361C16.0024 358.879 16.846 356.846 18.3458 355.346C19.8456 353.846 21.879 353.002 24 353H296C298.122 353 300.157 352.157 301.657 350.657C303.157 349.157 304 347.122 304 345C304 342.878 303.157 340.843 301.657 339.343C300.157 337.843 298.122 337 296 337H24C17.637 337.007 11.5367 339.538 7.03733 344.037C2.53801 348.537 0.00714632 354.637 0 361L0 408C0.00714632 414.363 2.53801 420.463 7.03733 424.963C11.5367 429.462 17.637 431.993 24 432H232Z" fill="#4A6A37"/>
<path d="M507.441 397.818C494.412 394.518 481.019 392.874 467.578 392.927C464.882 379.911 460.557 367.287 454.706 355.352C453.9 353.798 452.606 352.551 451.023 351.803C449.44 351.055 447.656 350.847 445.943 351.211C435.06 353.791 424.482 357.519 414.385 362.331C407.074 353.203 398.769 344.919 389.623 337.631C388.23 336.571 386.528 335.997 384.778 335.997C383.028 335.997 381.326 336.571 379.933 337.631C370.446 345.192 361.863 353.823 354.355 363.352C343.622 358.048 332.324 353.974 320.676 351.208C318.964 350.845 317.179 351.053 315.597 351.801C314.014 352.549 312.72 353.795 311.914 355.349C306.063 367.284 301.738 379.909 299.041 392.925C285.601 392.875 272.208 394.518 259.179 397.815C257.493 398.287 256.009 399.298 254.953 400.694C253.897 402.091 253.328 403.795 253.334 405.545C253.343 408.057 253.958 467.368 290.983 495.36C308.339 508.481 330.026 512.06 348.538 512.06C360.235 512.012 371.893 510.705 383.31 508.16C394.727 510.705 406.386 512.013 418.083 512.06C436.593 512.06 458.283 508.477 475.636 495.36C512.661 467.368 513.277 408.06 513.285 405.545C513.29 403.795 512.721 402.092 511.666 400.696C510.61 399.301 509.126 398.29 507.441 397.818ZM443.141 368.479C447.726 379.19 451.016 390.409 452.941 401.9C452.968 402.174 453.007 402.442 453.06 402.707C455.151 416.562 454.898 432.007 448.495 445.55C442.134 459.004 430.338 468.987 418.357 476.157C429.017 461.613 438.557 442.757 438.557 421.832C438.557 404.597 432.083 388.764 423.843 375.588C430.111 372.789 436.559 370.414 443.145 368.479H443.141ZM300.633 482.6C276.282 464.19 270.87 426.718 269.673 411.813C278.589 410.037 287.648 409.074 296.738 408.936C295.622 423.104 297.021 438.354 303.655 452.388C313.755 473.749 333.668 487.522 351.208 495.988C334.86 496.331 315.376 493.747 300.633 482.6ZM318.12 445.55C305.074 417.95 317.643 382.238 323.489 368.476C330.875 370.646 338.086 373.374 345.058 376.638C337.13 389.6 331 405.053 331 421.832C331 444.208 341.909 464.222 353.433 479.124C339.729 471.824 325.413 460.978 318.12 445.55ZM384.778 489.208C373.6 479.252 347 452.347 347 421.832C347 391.317 373.623 364.394 384.791 354.447C392.39 361.195 399.281 368.7 405.356 376.847C405.516 377.092 405.689 377.328 405.874 377.554C414.786 389.824 422.566 405.27 422.566 421.831C422.561 452.349 395.951 479.257 384.778 489.208ZM465.987 482.6C451.231 493.756 431.729 496.335 415.374 495.987C433.023 487.48 452.887 473.706 462.964 452.387C469.599 438.353 470.997 423.104 469.882 408.936C478.972 409.082 488.03 410.047 496.946 411.819C495.747 426.737 490.332 464.194 465.987 482.6Z" fill="#4A6A37"/>
<path d="M353.97 241.06C352.049 241.055 350.19 241.741 348.733 242.993C347.276 244.245 346.317 245.979 346.031 247.878C345.746 249.778 346.153 251.717 347.178 253.342C348.203 254.966 349.778 256.168 351.616 256.728C353.454 257.288 355.431 257.169 357.188 256.392C358.945 255.615 360.365 254.233 361.187 252.497C362.01 250.761 362.181 248.787 361.669 246.935C361.158 245.084 359.997 243.478 358.4 242.41C357.089 241.533 355.548 241.063 353.97 241.06V241.06Z" fill="#4A6A37"/>
<path d="M340.65 269.03C338.885 267.854 336.725 267.428 334.645 267.844C332.566 268.26 330.737 269.485 329.56 271.25L304.68 308.56C303.503 310.326 303.075 312.488 303.491 314.57C303.908 316.651 305.134 318.482 306.901 319.659C308.667 320.837 310.829 321.264 312.91 320.848C314.992 320.431 316.823 319.205 318 317.439L342.87 280.12C343.453 279.246 343.858 278.266 344.062 277.236C344.266 276.205 344.265 275.145 344.059 274.115C343.853 273.085 343.446 272.105 342.861 271.233C342.276 270.36 341.525 269.612 340.65 269.03V269.03Z" fill="#4A6A37"/>
<path d="M168 392C172.418 392 176 388.418 176 384C176 379.582 172.418 376 168 376C163.582 376 160 379.582 160 384C160 388.418 163.582 392 168 392Z" fill="#4A6A37"/>
<path d="M200 392C204.418 392 208 388.418 208 384C208 379.582 204.418 376 200 376C195.582 376 192 379.582 192 384C192 388.418 195.582 392 200 392Z" fill="#4A6A37"/>
<path d="M232 392C236.418 392 240 388.418 240 384C240 379.582 236.418 376 232 376C227.582 376 224 379.582 224 384C224 388.418 227.582 392 232 392Z" fill="#4A6A37"/>
</g>
<defs>
<clipPath id="clip0_1:758">
<rect width="512" height="512" fill="white"/>
</clipPath>
</defs>
</svg>
