<svg width="512" height="512" viewBox="0 0 512 512" fill="none" xmlns="http://www.w3.org/2000/svg">
<g clip-path="url(#clip0_1:1422)">
<path d="M97.4517 92.2509C101.548 92.7991 105.317 89.912 105.862 85.8124C109.125 61.228 127.142 36.4548 149.677 25.5683C181.739 10.0768 221.493 11.6467 256.02 29.7637C276.633 40.5794 292.387 54.3421 301.581 69.5649C305.28 75.6908 308.135 83.9808 310.067 94.2063C310.746 97.8015 313.889 100.307 317.418 100.306C317.878 100.306 318.347 100.264 318.816 100.175C322.881 99.4064 325.554 95.4896 324.786 91.4239C322.522 79.4388 319.029 69.4791 314.404 61.8202C303.645 44.0048 286.343 28.7561 262.981 16.4963C224.271 -3.81675 179.478 -5.46756 143.161 12.0782C115.919 25.2397 94.963 54.0785 91.0123 83.84C90.468 87.9406 93.3512 91.7066 97.4517 92.2509V92.2509Z" fill="#4A6A37"/>
<path d="M470.183 468.727L392.665 391.208L419.799 346.304C419.875 346.179 419.947 346.051 420.015 345.921C426.658 333.313 425.088 318.809 416.107 309.828L402.361 296.08C396.529 290.25 387.04 290.249 381.208 296.081L371.893 305.398C365.075 300.195 356.151 299.046 348.393 301.924C347.955 295.302 347.401 288.788 346.802 282.469L346.363 277.684C349 272.153 350.39 269.223 351.12 267.505L351.199 267.543C369.945 228.243 367.245 179.11 344.319 142.368C323.243 108.593 287.769 87.1776 259.265 69.9704C232.424 53.7669 206.914 33.27 173.188 37.3436C158.073 39.1682 144.682 46.9199 135.478 59.1687C129.778 66.7566 126.188 75.4271 124.857 84.5201C108.972 93.3813 94.5646 103.85 82.0382 115.699C54.4778 141.764 38.5309 177.296 39.6794 215.522C40.2197 233.5 44.53 251.307 52.2737 267.541C52.2747 267.543 56.9106 277.263 56.9106 277.263L56.4352 282.445C53.2095 316.463 50.9115 355.701 64.5644 390.867C79.23 428.636 115.044 468.081 160.369 496.384C161.394 497.024 185.557 511.997 201.496 511.996C201.577 511.995 201.658 511.995 201.738 511.996C217.677 511.995 241.84 497.024 242.865 496.384C258.856 486.398 273.655 475.022 286.767 462.826C288.112 463.005 289.479 463.098 290.859 463.098C296.187 463.098 301.716 461.755 306.92 459.012C307.026 458.957 307.131 458.899 307.234 458.838L352.612 432.069L382.05 461.507C384.975 464.431 389.718 464.431 392.642 461.507C395.567 458.581 395.567 453.839 392.642 450.914L386.478 444.75L405.751 425.478L454.293 474.02L435.02 493.292L417.172 475.444C414.247 472.52 409.504 472.52 406.58 475.444C403.655 478.37 403.655 483.111 406.58 486.037L429.724 509.181C431.186 510.643 433.104 511.374 435.02 511.374C436.937 511.374 438.854 510.643 440.316 509.181L470.181 479.316C471.587 477.911 472.376 476.007 472.376 474.02C472.376 472.032 471.589 470.132 470.183 468.727V468.727ZM63.7085 256.461C64.0651 255.482 61.5774 251.078 61.1809 249.957C58.7601 243.118 56.9835 236.025 55.8969 228.853C50.3473 192.249 63.2881 151.298 91.9141 126.969C92.017 126.882 92.1169 126.792 92.2147 126.699C101.971 117.455 112.989 109.107 125.028 101.768C129.257 127.509 146.805 141.543 164.418 153.711C172.322 159.172 179.905 164.28 187.267 169.107C168.409 182.378 147.756 192.794 127.035 202.768C110.226 210.856 92.8459 219.216 78.4011 232.1C70.89 238.796 66.9502 247.55 63.7085 256.461V256.461ZM234.932 483.682C226.039 489.234 209.904 497.019 201.756 497.019C201.711 497.019 201.664 497.018 201.619 497.019C201.574 497.021 201.528 497.019 201.481 497.019C193.334 497.019 177.197 489.233 168.305 483.682C135.356 463.106 94.4688 426.496 78.5309 385.448C66.0614 353.335 68.2865 316.173 71.3524 283.839C71.9147 277.913 73.8421 272.895 75.8574 267.068C79.1041 257.678 82.1711 248.81 88.3728 243.279C101.243 231.8 117.657 223.903 133.53 216.266L136.518 214.828C157.974 204.481 180.544 192.837 200.791 177.808C214.472 186.438 227.48 194.106 240.375 201.147C244.005 203.132 248.555 201.794 250.54 198.164C252.522 194.534 251.187 189.984 247.557 188.001C224.264 175.28 200.552 160.467 172.935 141.385C153.743 128.127 142.779 117.493 139.805 99.2985C137.992 88.2082 140.71 77.1528 147.459 68.1688C154.188 59.2136 163.964 53.5481 174.989 52.2179C187.308 50.7239 199.531 54.2442 210.688 59.2246C224.742 65.5003 238.371 74.8529 251.528 82.7964C280.078 100.032 312.438 119.566 331.616 150.301C351.007 181.377 354.036 222.489 339.767 256.448C336.526 247.542 332.586 238.792 325.079 232.097C310.653 219.229 293.219 210.839 277.837 203.435C274.108 201.639 269.632 203.208 267.839 206.936C266.045 210.663 267.612 215.14 271.339 216.933C285.831 223.908 302.255 231.814 315.107 243.277C321.309 248.809 324.376 257.677 327.623 267.067C328.756 270.345 329.932 273.712 331.262 277.006L331.891 283.862C332.786 293.296 333.581 303.154 333.986 313.169L268.745 378.41C259.945 387.211 259.246 401.062 266.598 410.696L257.084 420.211C251.252 426.043 251.252 435.533 257.084 441.364L270.83 455.112C271.139 455.421 271.457 455.721 271.78 456.013C259.483 466.927 246.703 476.331 234.932 483.682V483.682ZM282.793 445.672C282.31 445.321 281.846 444.943 281.42 444.518L267.674 430.804L277.172 421.305C281.437 424.572 286.624 426.346 292.086 426.346C295.498 426.346 298.803 425.65 301.844 424.334C295.98 431.821 289.541 438.966 282.793 445.672V445.672ZM298.883 408.549C295.07 412.361 289.104 412.363 285.289 408.548C285.286 408.545 279.337 402.597 279.337 402.597C275.589 398.848 275.589 392.75 279.337 389.002C279.337 389.002 350.145 318.194 350.201 318.138C353.762 314.577 360.041 314.383 363.795 318.137L369.748 324.091C371.563 325.906 372.563 328.32 372.563 330.888C372.563 333.457 371.563 335.87 369.748 337.685L298.883 408.549ZM350.176 416.119L307.356 441.378C321.325 424.97 332.116 407.754 338.671 390.871C338.861 390.382 339.033 389.891 339.217 389.401L380.34 348.278C384.984 343.633 387.543 337.458 387.543 330.888C387.543 325.425 385.767 320.235 382.5 315.971L391.771 306.674L405.517 320.422C409.79 324.694 410.32 332.043 406.858 338.759L375.282 391.014L350.176 416.119ZM375.889 434.161L364.604 422.876L383.876 403.604L395.161 414.889L375.889 434.161Z" fill="#4A6A37"/>
<path d="M155.703 292.687C149.668 298.722 141.644 302.046 133.11 302.046C124.576 302.046 116.551 298.722 110.516 292.687C107.59 289.763 102.85 289.762 99.9234 292.688C96.9983 295.613 96.9993 300.356 99.9234 303.28C101.673 305.03 103.54 306.618 105.5 308.05L100.929 316.552C98.9707 320.195 100.336 324.737 103.98 326.695C105.109 327.301 106.323 327.59 107.52 327.59C110.189 327.59 112.771 326.16 114.124 323.646L118.865 314.825C121.064 315.522 123.32 316.058 125.619 316.425V325.142C125.619 329.28 128.973 332.632 133.109 332.632C137.246 332.632 140.6 329.28 140.6 325.142V316.424C142.898 316.057 145.153 315.521 147.353 314.824L152.094 323.645C153.446 326.161 156.029 327.589 158.698 327.589C159.895 327.589 161.109 327.301 162.238 326.694C165.881 324.736 167.247 320.194 165.289 316.551L160.718 308.049C162.678 306.617 164.545 305.029 166.294 303.279C169.22 300.354 169.22 295.611 166.294 292.687C163.371 289.762 158.629 289.763 155.703 292.687V292.687Z" fill="#4A6A37"/>
<path d="M262.425 316.425V325.143C262.425 329.28 265.778 332.633 269.915 332.633C274.051 332.633 277.405 329.28 277.405 325.143V316.425C279.704 316.058 281.96 315.522 284.159 314.825L288.902 323.646C290.254 326.162 292.837 327.59 295.505 327.59C296.702 327.59 297.918 327.302 299.045 326.695C302.688 324.735 304.055 320.195 302.095 316.551L297.524 308.049C299.485 306.617 301.351 305.029 303.101 303.28C306.026 300.355 306.026 295.612 303.101 292.688C300.175 289.762 295.433 289.763 292.508 292.687C286.473 298.722 278.449 302.046 269.915 302.046C261.381 302.046 253.357 298.722 247.321 292.687C244.396 289.763 239.653 289.762 236.729 292.688C233.804 295.613 233.805 300.356 236.73 303.28C238.48 305.03 240.346 306.617 242.307 308.049L237.736 316.551C235.776 320.195 237.141 324.735 240.786 326.695C241.914 327.301 243.128 327.59 244.326 327.59C246.994 327.59 249.577 326.161 250.929 323.646L255.672 314.825C257.871 315.523 260.126 316.058 262.425 316.425V316.425Z" fill="#4A6A37"/>
</g>
<defs>
<clipPath id="clip0_1:1422">
<rect width="512" height="512" fill="white"/>
</clipPath>
</defs>
</svg>
