<svg width="512" height="512" viewBox="0 0 512 512" fill="none" xmlns="http://www.w3.org/2000/svg">
<path d="M135.586 302.461H117.27V276.207C117.27 272.074 113.922 268.723 109.789 268.723C105.652 268.723 102.305 272.074 102.305 276.207V302.461H52.8203V252.062C52.8203 239.617 58.3438 227.965 67.9688 220.082C77.1836 212.543 87.5156 203.891 92.0742 200.066C97.8984 201.207 102.305 206.352 102.305 212.504V246.273C102.305 250.406 105.652 253.758 109.789 253.758C113.922 253.758 117.27 250.406 117.27 246.273V212.504C117.27 197.262 104.871 184.859 89.6289 184.859C87.8633 184.859 86.1562 185.484 84.8047 186.621C84.6641 186.738 70.5977 198.594 58.4883 208.5C45.375 219.234 37.8555 235.113 37.8555 252.062V302.457H22.4922C18.4062 302.457 15.0742 305.738 15.0117 309.824C15.0039 309.988 15 310.148 15 310.309V484.355C15 499.598 27.4023 512 42.6445 512H115.438C130.68 512 143.078 499.598 143.078 484.355V310.309C143.078 310.148 143.074 309.988 143.07 309.824C143.004 305.738 139.672 302.461 135.586 302.461ZM128.113 317.426V346.148H60.207C56.0742 346.148 52.7266 349.5 52.7266 353.633C52.7266 357.766 56.0742 361.117 60.207 361.117H128.113V389.996H29.9688V317.426H128.113ZM44.7578 497.031C36.6016 497.031 29.9688 490.398 29.9688 482.242V404.965H128.113V482.242C128.113 490.398 121.477 497.031 113.32 497.031H44.7578Z" fill="#4A6A37"/>
<path d="M466.543 321.523C463.715 318.512 458.98 318.359 455.965 321.188C452.949 324.016 452.797 328.75 455.625 331.766C472.422 349.672 481.672 373.062 481.672 397.629C481.672 450.719 438.477 493.914 385.383 493.914C332.289 493.914 289.094 450.719 289.094 397.629C289.094 344.535 332.289 301.34 385.383 301.34C403.145 301.34 420.496 306.211 435.562 315.43C439.09 317.586 443.695 316.477 445.852 312.953C448.008 309.426 446.898 304.82 443.375 302.664C425.957 292.004 405.906 286.371 385.387 286.371C324.039 286.371 274.129 336.281 274.129 397.629C274.129 458.973 324.039 508.883 385.387 508.883C446.73 508.883 496.641 458.973 496.641 397.629C496.641 369.242 485.949 342.215 466.543 321.523V321.523Z" fill="#4A6A37"/>
<path d="M385.387 316.285C340.535 316.285 304.043 352.773 304.043 397.629C304.043 442.48 340.531 478.969 385.387 478.969C430.238 478.969 466.727 442.48 466.727 397.629C466.727 352.773 430.238 316.285 385.387 316.285V316.285ZM385.387 464C348.785 464 319.012 434.227 319.012 397.629C319.012 361.027 348.785 331.254 385.387 331.254C421.984 331.254 451.758 361.027 451.758 397.629C451.758 434.227 421.984 464 385.387 464V464Z" fill="#4A6A37"/>
<path d="M315.383 99.625C315.383 44.6914 270.691 0 215.758 0C160.824 0 116.133 44.6914 116.133 99.625C116.133 123.84 133.711 153.816 168.398 188.809C168.328 189.223 168.285 189.648 168.285 190.082V466.977C168.285 491.184 187.977 510.879 212.188 510.879H214.309C238.52 510.879 258.215 491.184 258.215 466.977V336.57C258.215 332.438 254.863 329.086 250.73 329.086C246.594 329.086 243.246 332.438 243.246 336.57V466.977C243.246 482.93 230.266 495.91 214.309 495.91H212.188C196.23 495.91 183.25 482.93 183.25 466.977V259.43H243.246V306.637C243.246 310.77 246.594 314.121 250.73 314.121C254.863 314.121 258.215 310.77 258.215 306.637V193.668C296.141 156.574 315.383 124.938 315.383 99.625V99.625ZM131.102 99.625C131.102 52.9453 169.078 14.9688 215.758 14.9688C262.438 14.9688 300.414 52.9453 300.414 99.625C300.414 120.09 281.855 149.512 248.125 182.598H247.074L246.27 148.062C246.172 143.934 242.793 140.652 238.613 140.758C234.48 140.852 231.211 144.281 231.309 148.41L232.102 182.598H223.242V116.129C223.242 111.996 219.891 108.645 215.758 108.645C211.625 108.645 208.273 111.996 208.273 116.129V182.598H200.156L199.375 148.066C199.277 143.934 195.836 140.66 191.723 140.754C187.59 140.848 184.316 144.273 184.41 148.406L185.188 182.598H183.387C149.648 149.504 131.102 120.109 131.102 99.625ZM183.25 243.438V197.566H243.246V243.438H183.25Z" fill="#4A6A37"/>
<path d="M349.148 187.926L338.586 218.317C337.648 221.008 338.324 223.996 340.32 226.027C342.324 228.055 345.301 228.774 348.004 227.879L378.555 217.777L404.195 237.219C405.52 238.223 407.113 238.738 408.715 238.738C409.855 238.738 411.004 238.477 412.062 237.945C414.609 236.672 416.215 234.063 416.199 231.215L416.031 199.039L442.445 180.66C444.781 179.031 445.992 176.219 445.57 173.402C445.145 170.586 443.156 168.254 440.445 167.387L409.793 157.602L400.473 126.805C399.648 124.078 397.348 122.055 394.539 121.59C391.727 121.121 388.895 122.289 387.234 124.602L368.457 150.735L336.285 150.078C333.488 150.016 330.805 151.582 329.492 154.113C328.18 156.641 328.414 159.695 330.102 161.992L349.148 187.926ZM372.086 165.781C374.562 165.828 376.879 164.664 378.312 162.664L390.539 145.652L396.605 165.703C397.316 168.063 399.145 169.918 401.492 170.668L421.445 177.035L404.254 189C402.23 190.406 401.031 192.719 401.043 195.184L401.152 216.129L384.461 203.473C383.141 202.477 381.551 201.953 379.937 201.953C379.152 201.953 378.355 202.078 377.59 202.332L357.699 208.91L364.578 189.121C365.387 186.797 365 184.219 363.539 182.235L351.141 165.352L372.086 165.781Z" fill="#4A6A37"/>
<path d="M416.395 82.2697L436.914 85.4103L445.957 104.09C447.195 106.652 449.785 108.289 452.637 108.313H452.691C455.52 108.313 458.105 106.719 459.379 104.192L468.703 85.6486L489.266 82.8205C492.086 82.4337 494.445 80.4767 495.344 77.7736C496.246 75.0705 495.535 72.0939 493.508 70.09L478.758 55.4884L482.422 35.0587C482.922 32.258 481.793 29.4103 479.5 27.7189C477.207 26.0275 474.152 25.7814 471.621 27.09L453.18 36.6095L434.883 26.8087C432.371 25.465 429.316 25.6642 426.996 27.3205C424.68 28.9767 423.504 31.8048 423.965 34.6173L427.316 55.0978L412.344 69.4728C410.289 71.4455 409.535 74.4142 410.395 77.1291C411.254 79.8439 413.578 81.8361 416.395 82.2697ZM440.523 63.172C442.297 61.465 443.121 58.9923 442.723 56.5627L441.184 47.1642L449.582 51.6603C451.754 52.8205 454.359 52.84 456.547 51.7111L465.012 47.3439L463.328 56.7189C462.895 59.1447 463.68 61.6252 465.43 63.3595L472.203 70.0587L462.766 71.3595C460.324 71.6955 458.207 73.2072 457.098 75.4103L452.816 83.9181L448.668 75.3439C447.594 73.1291 445.5 71.5822 443.062 71.2072L433.648 69.7658L440.523 63.172Z" fill="#4A6A37"/>
</svg>
