<?xml version="1.0" encoding="utf-8"?>
<!-- Generator: Adobe Illustrator 27.5.0, SVG Export Plug-In . SVG Version: 6.00 Build 0)  -->
<svg version="1.1" xmlns="http://www.w3.org/2000/svg" xmlns:xlink="http://www.w3.org/1999/xlink" x="0px" y="0px"
	 viewBox="0 0 1122 1122" style="enable-background:new 0 0 1122 1122;" xml:space="preserve">
<g id="BG">
	<rect style="fill:#FFFFFF;" width="1122" height="1122"/>
</g>
<g id="Object">
	<g>
		<g>
			<path style="fill:#E4B5B1;" d="M949,619.608c0-20.558-16.725-37.283-37.283-37.283c-12.01,0-22.704,5.714-29.527,14.559
				l-11.2-24.499l34.195-74.798c1.984-4.34,0.074-9.468-4.266-11.452c-4.341-1.984-9.468-0.075-11.453,4.267l-27.978,61.199
				l-27.977-61.199c-1.984-4.342-7.11-6.254-11.453-4.267c-4.34,1.984-6.251,7.112-4.266,11.452l34.195,74.798l-11.2,24.499
				c-6.823-8.845-17.518-14.559-29.527-14.559c-20.558,0-37.283,16.724-37.283,37.283s16.725,37.283,37.283,37.283
				c19.886,0,36.184-15.65,37.228-35.281l13.001-28.44l13.002,28.44c0.604,11.359,6.315,21.384,14.873,27.816l26.577,30.5
				c1.709,1.961,4.107,2.965,6.519,2.965c2.013,0,4.036-0.699,5.674-2.127c3.598-3.136,3.974-8.595,0.838-12.193l-10.692-12.27
				C935.716,653.191,949,637.927,949,619.608z M811.258,639.607c-11.027,0-19.999-8.971-19.999-19.999s8.972-19.999,19.999-19.999
				c11.027,0,19.999,8.971,19.999,19.999S822.286,639.607,811.258,639.607z M911.717,639.607c-11.027,0-19.999-8.971-19.999-19.999
				s8.972-19.999,19.999-19.999c11.028,0,20,8.971,20,19.999S922.745,639.607,911.717,639.607z"/>
			<g>
				<g>
					<g>
						<path style="fill:#272525;" d="M228.294,547.397c3.532,3.661,5.298,8.066,5.298,13.216c0,4.268-1.095,8.057-3.283,11.368
							c-2.189,3.311-5.325,5.895-9.409,7.753c-4.084,1.858-8.904,2.787-14.458,2.787c-1.509,0-4.158-0.055-7.946-0.166
							c-3.789-0.11-7.615-0.165-11.478-0.165c-6.181,0-10.853,0.11-14.017,0.331v-2.263c2.722-0.11,4.699-0.405,5.932-0.883
							c1.232-0.478,2.078-1.361,2.538-2.649c0.46-1.288,0.69-3.348,0.69-6.181V514.48c0-2.833-0.23-4.893-0.69-6.181
							c-0.461-1.288-1.306-2.171-2.538-2.649c-1.233-0.478-3.21-0.773-5.932-0.883v-2.263c3.126,0.221,7.726,0.331,13.796,0.331
							c2.943,0,6.189-0.037,9.74-0.11c3.55-0.074,5.987-0.11,7.312-0.11c5.15,0,9.51,0.745,13.078,2.235
							c3.568,1.49,6.254,3.569,8.057,6.236c1.802,2.667,2.704,5.767,2.704,9.298c0,4.341-1.371,8.241-4.111,11.699
							c-2.741,3.458-7.091,6.107-13.051,7.946v0.221C218.838,541.355,224.762,543.737,228.294,547.397z M213.173,535.008
							c2.464-3.348,3.697-7.818,3.697-13.41c0-5.665-1.251-9.887-3.753-12.665c-2.502-2.777-6.531-4.166-12.085-4.166
							c-2.355,0-4.12,0.267-5.298,0.8c-1.178,0.533-1.987,1.481-2.428,2.842c-0.441,1.361-0.662,3.385-0.662,6.07v25.55h7.615
							C206.404,540.03,210.709,538.356,213.173,535.008z M193.307,576.562c0.441,1.288,1.25,2.171,2.428,2.649
							c1.177,0.478,2.98,0.717,5.408,0.717c14.09,0,21.135-6.604,21.135-19.811c0-5.923-1.61-10.43-4.829-13.52
							c-3.22-3.09-8.324-4.635-15.313-4.635h-9.492v28.585C192.645,573.269,192.866,575.274,193.307,576.562z"/>
					</g>
					<g>
						<path style="fill:#272525;" d="M334.434,568.063c0,4.268,0.257,9.087,0.773,14.458c-5.114-0.221-13.741-0.331-25.881-0.331
							c-14.458,0-25.384,0.11-32.779,0.331v-2.263c2.722-0.11,4.699-0.405,5.932-0.883c1.232-0.478,2.078-1.361,2.538-2.649
							c0.46-1.288,0.69-3.348,0.69-6.181V514.48c0-2.833-0.23-4.893-0.69-6.181c-0.461-1.288-1.306-2.171-2.538-2.649
							c-1.233-0.478-3.21-0.773-5.932-0.883v-2.263c7.395,0.221,18.321,0.331,32.779,0.331c11.073,0,18.946-0.11,23.618-0.331
							c-0.516,4.93-0.772,9.381-0.772,13.354c0,2.943,0.11,5.279,0.331,7.008h-2.594c-0.552-4.893-1.242-8.535-2.069-10.926
							c-0.828-2.391-2.227-4.13-4.194-5.215c-1.968-1.085-4.939-1.628-8.912-1.628h-9.381c-2.723,0-4.7,0.221-5.932,0.662
							c-1.233,0.441-2.079,1.297-2.538,2.566c-0.461,1.269-0.69,3.32-0.69,6.153v26.654h7.505c3.788,0,6.309-1.131,7.56-3.394
							c1.25-2.263,2.023-4.571,2.318-6.926c0.294-2.354,0.497-3.881,0.607-4.58h2.594c-0.258,3.716-0.386,7.266-0.386,10.65
							l0.055,5.408c0,3.826,0.221,9.179,0.662,16.058h-2.594c-0.074-0.515-0.285-2.336-0.635-5.463
							c-0.35-3.127-1.371-5.491-3.063-7.091c-1.692-1.6-4.065-2.4-7.119-2.4h-7.505v27.15c0,2.833,0.229,4.884,0.69,6.153
							c0.46,1.269,1.305,2.125,2.538,2.566c1.232,0.441,3.209,0.662,5.932,0.662h8.277c4.709,0,8.286-0.625,10.733-1.876
							c2.447-1.251,4.212-3.256,5.298-6.015c1.085-2.759,1.922-6.806,2.511-12.14h2.594
							C334.544,561.92,334.434,564.642,334.434,568.063z"/>
					</g>
					<g>
						<path style="fill:#272525;" d="M446.478,580.259v2.263c-3.09-0.221-7.138-0.331-12.14-0.331
							c-6.438,0-11.257,0.11-14.458,0.331v-2.263c2.87-0.11,4.92-0.46,6.153-1.048c1.233-0.589,1.849-1.637,1.849-3.146
							c0-1.288-0.441-3.053-1.324-5.298l-6.953-18.542h-27.261l-4.635,11.975c-1.509,3.826-2.262,6.916-2.262,9.271
							c0,2.391,0.8,4.102,2.4,5.132c1.6,1.03,4.074,1.582,7.422,1.656v2.263c-4.304-0.221-8.645-0.331-13.023-0.331
							c-3.385,0-6.2,0.11-8.443,0.331v-2.263c3.752-0.846,6.713-4.12,8.884-9.823l26.598-68.483h1.821l27.536,71.076
							C440.482,577.702,443.093,580.112,446.478,580.259z M406.139,516.246l-12.968,33.717h25.605L406.139,516.246z"/>
					</g>
					<g>
						<path style="fill:#272525;" d="M547.789,505.899c-1.269,0.644-2.134,1.702-2.594,3.173c-0.461,1.472-0.69,3.66-0.69,6.567
							v33.993c0,5.408-0.359,10.052-1.076,13.934c-0.717,3.881-1.904,7.22-3.559,10.016c-1.913,3.237-4.7,5.803-8.36,7.698
							c-3.661,1.895-7.772,2.842-12.333,2.842c-8.278,0-14.605-2.042-18.983-6.125c-2.244-2.097-3.965-4.313-5.16-6.65
							c-1.196-2.336-2.033-5.16-2.511-8.471c-0.478-3.311-0.717-7.615-0.717-12.913V514.48c0-2.833-0.23-4.893-0.69-6.181
							c-0.461-1.288-1.306-2.171-2.538-2.649c-1.233-0.478-3.21-0.773-5.932-0.883v-2.263c3.201,0.221,8.02,0.331,14.458,0.331
							c6.07,0,10.871-0.11,14.403-0.331v2.263c-2.723,0.11-4.7,0.405-5.932,0.883c-1.233,0.478-2.078,1.361-2.538,2.649
							c-0.461,1.288-0.69,3.348-0.69,6.181v37.414c0,6.033,0.405,11.037,1.214,15.01c0.809,3.973,2.511,7.174,5.104,9.602
							c2.594,2.428,6.429,3.642,11.506,3.642c7.982,0,13.594-2.557,16.831-7.67c3.237-5.114,4.856-12.306,4.856-21.577v-35.262
							c0-2.796-0.323-4.948-0.966-6.456c-0.644-1.508-1.692-2.594-3.146-3.256c-1.454-0.662-3.504-1.048-6.153-1.159v-2.263
							c2.722,0.221,6.567,0.331,11.533,0.331c4.525,0,8.02-0.11,10.485-0.331v2.263
							C550.998,504.878,549.058,505.255,547.789,505.899z"/>
					</g>
					<g>
						<path style="fill:#272525;" d="M594.689,516.964c0-4.415-0.276-9.234-0.828-14.458c6.254,0.221,16.886,0.331,31.896,0.331
							c14.9,0,25.476-0.11,31.73-0.331c-0.516,5.371-0.773,10.19-0.773,14.458c0,3.789,0.11,6.88,0.331,9.271h-2.594
							c-0.589-5.849-1.334-10.181-2.235-12.996c-0.902-2.814-2.483-4.874-4.746-6.18s-5.731-1.959-10.402-1.959h-6.125v64.289
							c0,3.127,0.294,5.417,0.883,6.87c0.588,1.453,1.655,2.456,3.201,3.007c1.545,0.552,3.992,0.883,7.339,0.993v2.263
							c-3.973-0.221-9.511-0.331-16.61-0.331c-7.542,0-13.115,0.11-16.721,0.331v-2.263c3.347-0.11,5.794-0.441,7.339-0.993
							c1.545-0.552,2.612-1.554,3.201-3.007c0.588-1.453,0.883-3.743,0.883-6.87v-64.289h-6.125c-4.672,0-8.14,0.653-10.402,1.959
							c-2.263,1.306-3.844,3.366-4.746,6.18c-0.902,2.814-1.647,7.146-2.235,12.996h-2.594
							C594.579,523.843,594.689,520.753,594.689,516.964z"/>
					</g>
					<g>
						<path style="fill:#272525;" d="M752.756,502.837c3.385,0,6.199-0.11,8.443-0.331v2.263c-1.509,0.331-2.98,1.278-4.415,2.842
							c-1.435,1.564-2.98,3.964-4.635,7.202l-17.714,35.152v20.583c0,2.833,0.229,4.893,0.69,6.181
							c0.46,1.288,1.305,2.171,2.538,2.649c1.232,0.478,3.209,0.773,5.932,0.883v2.263c-3.532-0.221-8.314-0.331-14.348-0.331
							c-6.476,0-11.313,0.11-14.513,0.331v-2.263c2.722-0.11,4.699-0.405,5.932-0.883c1.232-0.478,2.078-1.361,2.538-2.649
							c0.46-1.288,0.69-3.348,0.69-6.181v-17.052l-22.901-42.27c-1.399-2.538-2.603-4.231-3.615-5.077
							c-1.012-0.846-1.996-1.269-2.952-1.269v-2.373c2.943,0.221,6.254,0.331,9.933,0.331c7.32,0,12.6-0.11,15.838-0.331v2.373
							c-5.298,0-7.946,1.453-7.946,4.359c0,1.104,0.386,2.41,1.159,3.918l18.817,36.035l14.403-28.695
							c2.06-4.157,3.09-7.395,3.09-9.712c0-2.134-0.828-3.651-2.483-4.553c-1.656-0.901-4.158-1.389-7.505-1.462v-2.263
							C744.038,502.726,748.378,502.837,752.756,502.837z"/>
					</g>
				</g>
				<g>
					<g>
						<path style="fill:#BFA674;" d="M428.124,617.233v10.089c1.35-2.241,3.503-3.363,6.459-3.363c2.447,0,4.427,0.816,5.944,2.446
							c1.515,1.631,2.274,3.848,2.274,6.65v12.461h-6.498v-11.581c0-1.377-0.362-2.44-1.089-3.191
							c-0.726-0.751-1.727-1.128-3.001-1.128s-2.274,0.377-3,1.128c-0.727,0.751-1.089,1.815-1.089,3.191v11.581h-6.536v-28.283
							H428.124z"/>
					</g>
					<g>
						<path style="fill:#BFA674;" d="M457.248,642.726c-1.886-2.039-2.828-4.651-2.828-7.836c0-3.184,0.942-5.802,2.828-7.854
							c1.886-2.049,4.185-3.076,6.899-3.076c2.714,0,4.796,1.007,6.249,3.02v-2.79h6.536v21.327h-6.536v-3.096
							c-1.58,2.243-3.694,3.365-6.345,3.365C461.401,645.784,459.134,644.765,457.248,642.726z M468.981,638.752
							c0.943-0.918,1.414-2.218,1.414-3.9c0-1.682-0.471-2.974-1.414-3.878c-0.943-0.904-2.026-1.358-3.249-1.358
							c-1.223,0-2.306,0.46-3.248,1.377c-0.944,0.917-1.414,2.216-1.414,3.898c0,1.682,0.471,2.975,1.414,3.88
							c0.942,0.904,2.026,1.357,3.248,1.357C466.956,640.127,468.039,639.668,468.981,638.752z"/>
					</g>
					<g>
						<path style="fill:#BFA674;" d="M496.272,621.781c-0.74,0.739-1.644,1.108-2.714,1.108c-1.07,0-1.975-0.369-2.714-1.108
							c-0.739-0.739-1.108-1.649-1.108-2.733c0-1.082,0.369-1.993,1.108-2.733c0.739-0.739,1.644-1.108,2.714-1.108
							c1.07,0,1.974,0.369,2.714,1.108c0.738,0.74,1.108,1.651,1.108,2.733C497.38,620.132,497.01,621.042,496.272,621.781z
							 M490.309,645.516v-21.327h6.536v21.327H490.309z"/>
					</g>
					<g>
						<path style="fill:#BFA674;" d="M516.758,624.189v3.975c1.528-2.802,3.567-4.205,6.115-4.205v6.651h-1.605
							c-1.504,0-2.631,0.357-3.382,1.07c-0.752,0.713-1.128,1.962-1.128,3.745v10.091h-6.536v-21.327H516.758z"/>
					</g>
					<g>
						<path style="fill:#BFA674;" d="M560.137,645.784c-2.421,0-4.471-0.842-6.154-2.523c-1.682-1.682-2.522-3.631-2.522-5.848
							s0.579-4.09,1.739-5.618c1.159-1.53,2.593-2.485,4.3-2.866c-1.198-1.835-1.797-3.415-1.797-4.74
							c0-1.911,0.694-3.549,2.083-4.911c1.389-1.363,3.306-2.045,5.752-2.045c2.446,0,4.376,0.624,5.79,1.873
							c1.415,1.248,2.122,2.713,2.122,4.395c0,0.917-0.179,1.734-0.535,2.446h-6.192c0.28-0.434,0.421-0.91,0.421-1.433
							s-0.147-0.937-0.44-1.243c-0.293-0.305-0.668-0.458-1.127-0.458c-0.458,0-0.835,0.153-1.127,0.458
							c-0.293,0.307-0.439,0.708-0.439,1.205c0,0.497,0.254,1.088,0.764,1.777l14.295,19.264h-7.529l-2.37-3.401
							c-0.765,1.096-1.771,1.982-3.02,2.656C562.902,645.446,561.565,645.784,560.137,645.784z M556.888,637.089
							c0,0.904,0.319,1.682,0.956,2.331c0.637,0.65,1.408,0.975,2.312,0.975c0.904,0,1.682-0.325,2.331-0.975
							c0.65-0.65,0.975-1.427,0.975-2.331s-0.325-1.675-0.975-2.312c-0.65-0.638-1.427-0.957-2.331-0.957
							c-0.904,0-1.675,0.319-2.312,0.957C557.207,635.413,556.888,636.184,556.888,637.089z"/>
					</g>
					<g>
						<path style="fill:#BFA674;" d="M605.237,630.611c0-1.885,0.802-3.466,2.408-4.74c1.605-1.274,3.777-1.911,6.516-1.911
							s4.95,0.625,6.631,1.873c1.682,1.249,2.574,2.955,2.676,5.121h-6.689c-0.076-0.739-0.331-1.242-0.764-1.51
							c-0.434-0.267-1.084-0.402-1.949-0.402c-1.708,0-2.562,0.523-2.562,1.568c0,0.943,1.045,1.593,3.135,1.948
							c2.115,0.357,4.038,0.906,5.771,1.645c0.891,0.356,1.637,0.949,2.236,1.777c0.599,0.828,0.898,1.841,0.898,3.038
							c0,1.988-0.854,3.611-2.561,4.873c-1.708,1.262-3.861,1.893-6.46,1.893s-4.765-0.593-6.498-1.778
							c-1.733-1.185-2.675-2.937-2.828-5.255h6.689c0.178,1.298,1.095,1.948,2.752,1.948c0.764,0,1.395-0.178,1.891-0.535
							c0.497-0.356,0.746-0.815,0.746-1.375c0-0.561-0.415-1.007-1.242-1.338c-0.829-0.331-1.829-0.612-3.001-0.841
							c-1.172-0.228-2.351-0.515-3.536-0.86c-1.184-0.343-2.191-0.941-3.019-1.797C605.651,633.102,605.237,631.986,605.237,630.611
							z"/>
					</g>
					<g>
						<path style="fill:#BFA674;" d="M636.807,642.726c-1.886-2.039-2.828-4.651-2.828-7.836c0-3.184,0.942-5.802,2.828-7.854
							c1.885-2.049,4.185-3.076,6.899-3.076c2.714,0,4.796,1.007,6.249,3.02v-2.79h6.536v21.327h-6.536v-3.096
							c-1.58,2.243-3.694,3.365-6.345,3.365C640.96,645.784,638.693,644.765,636.807,642.726z M648.54,638.752
							c0.943-0.918,1.414-2.218,1.414-3.9c0-1.682-0.471-2.974-1.414-3.878c-0.943-0.904-2.026-1.358-3.249-1.358
							c-1.222,0-2.306,0.46-3.248,1.377c-0.943,0.917-1.414,2.216-1.414,3.898c0,1.682,0.471,2.975,1.414,3.88
							c0.942,0.904,2.026,1.357,3.248,1.357C646.515,640.127,647.598,639.668,648.54,638.752z"/>
					</g>
					<g>
						<path style="fill:#BFA674;" d="M669.868,645.516v-28.283h6.536v28.283H669.868z"/>
					</g>
					<g>
						<path style="fill:#BFA674;" d="M691.482,642.765c-2.154-2.013-3.23-4.663-3.23-7.951c0-3.286,1.071-5.917,3.211-7.891
							c2.141-1.974,4.79-2.963,7.95-2.963c3.159,0,5.803,0.989,7.931,2.963c2.127,1.974,3.191,4.605,3.191,7.891
							c0,3.288-1.057,5.938-3.172,7.951c-2.115,2.013-4.752,3.02-7.911,3.02C696.291,645.784,693.635,644.777,691.482,642.765z
							 M702.585,638.828c0.866-0.918,1.299-2.243,1.299-3.976c0-1.732-0.446-3.051-1.337-3.955
							c-0.892-0.904-1.949-1.357-3.172-1.357c-1.223,0-2.274,0.452-3.153,1.357c-0.879,0.904-1.319,2.223-1.319,3.955
							c0,1.734,0.452,3.058,1.357,3.976c0.904,0.917,1.968,1.375,3.191,1.375C700.674,640.203,701.718,639.745,702.585,638.828z"/>
					</g>
					<g>
						<path style="fill:#BFA674;" d="M728.92,624.189v3.133c1.35-2.241,3.503-3.363,6.459-3.363c2.446,0,4.427,0.816,5.944,2.446
							c1.515,1.631,2.274,3.848,2.274,6.65v12.461h-6.498v-11.581c0-1.377-0.363-2.44-1.089-3.191
							c-0.726-0.751-1.727-1.128-3.001-1.128c-1.274,0-2.274,0.377-3,1.128c-0.727,0.751-1.089,1.815-1.089,3.191v11.581h-6.536
							v-21.327H728.92z"/>
					</g>
				</g>
			</g>
		</g>
		<g>
			<path style="fill:#F4E4DC;" d="M861.488,687.212h-439.9c-2.387,0-4.321-1.935-4.321-4.321c0-2.386,1.934-4.321,4.321-4.321h439.9
				c2.387,0,4.321,1.935,4.321,4.321C865.809,685.277,863.875,687.212,861.488,687.212z"/>
		</g>
		<g>
			<path style="fill:#F4E4DC;" d="M617.221,456.953h-439.9c-2.387,0-4.321-1.935-4.321-4.321s1.934-4.321,4.321-4.321h439.9
				c2.387,0,4.321,1.935,4.321,4.321S619.607,456.953,617.221,456.953z"/>
		</g>
	</g>
</g>
</svg>
